<svg width="381" height="381" viewBox="0 0 381 381" fill="none" xmlns="http://www.w3.org/2000/svg">
<path d="M251.079 6.75995C251.079 6.75995 189.716 -15.0455 129.491 19.6695C69.2577 54.3929 38.8627 123.317 12.77 178.522C-13.3311 233.735 1.69351 289.893 47.6699 315.501C93.6462 341.11 124.91 303.359 189.412 301.521C253.914 299.683 271.258 308.899 324.785 272.481C378.312 236.062 387.979 150.047 345.765 86.4011C303.543 22.7556 251.079 6.75995 251.079 6.75995Z" fill="#00AEFF"/>
<path opacity="0.7" d="M251.079 6.75995C251.079 6.75995 189.716 -15.0455 129.491 19.6695C69.2577 54.3929 38.8627 123.317 12.77 178.522C-13.3311 233.735 1.69351 289.893 47.6699 315.501C93.6462 341.11 124.91 303.359 189.412 301.521C253.914 299.683 271.258 308.899 324.785 272.481C378.312 236.062 387.979 150.047 345.765 86.4011C303.543 22.7556 251.079 6.75995 251.079 6.75995Z" fill="white"/>
<path d="M360.891 322.796C357.508 322.307 351.096 318.133 351.096 318.124C351.029 318.082 355.137 314.735 355.416 314.549C358.697 312.45 366.264 310.316 369.63 313.09C372.052 315.089 371.883 318.647 369.74 320.764C367.555 322.939 363.776 323.217 360.891 322.796Z" fill="#00AEFF"/>
<path d="M297.966 290.425C297.89 290.425 299.46 285.374 299.603 285.062C301.18 281.504 306.318 275.551 310.654 276.006C313.775 276.335 315.598 279.396 314.982 282.347C314.349 285.357 311.346 287.668 308.722 288.916C305.635 290.374 297.975 290.425 297.966 290.425Z" fill="#00AEFF"/>
<path d="M291.673 374.797C290.18 376.652 288.822 378.397 287.607 379.999H284.536C286.08 378.018 287.885 375.775 289.918 373.355C291.099 371.938 292.39 370.454 293.731 368.936C293.428 368.565 291.69 366.44 290.323 364.256C287.582 365.175 281.98 364.931 281.255 364.897C281.044 366.702 280.858 368.456 280.706 370.117C280.36 373.869 280.141 377.2 279.998 380.008H277.501C277.703 377.141 277.998 373.734 278.437 369.889C278.639 368.059 278.901 366.103 279.179 364.105C278.471 363.894 272.726 362.098 270.617 360.234C268.702 358.539 266.736 355.85 266.947 353.151C267.15 350.512 269.444 348.379 272.161 348.868C275.931 349.551 278.8 355.833 279.255 359.222C279.281 359.425 279.331 361.626 279.34 363.017C279.458 362.199 279.567 361.406 279.702 360.563C279.955 358.902 280.259 357.249 280.58 355.47C280.765 354.619 280.951 353.75 281.136 352.881C281.305 352.013 281.592 351.119 281.82 350.225C282.385 348.168 283.06 346.119 283.785 344.062C282.326 343.834 277.172 342.965 275.012 341.574C272.861 340.191 270.515 337.83 270.313 335.132C270.119 332.493 272.059 330.03 274.818 330.106C278.648 330.208 282.436 335.984 283.406 339.264C283.465 339.466 283.895 341.903 284.097 343.244C284.545 342.013 284.983 340.781 285.473 339.55C286.89 335.992 288.434 332.442 289.961 328.892C290.433 327.804 290.88 326.717 291.336 325.629C290.813 325.553 284.663 324.651 282.242 323.091C280.09 321.708 277.745 319.347 277.543 316.649C277.349 314.009 279.289 311.547 282.048 311.623C285.877 311.724 289.665 317.5 290.635 320.78C290.711 321.025 291.319 324.533 291.428 325.427C292.432 323.023 293.419 320.629 294.288 318.226C295.495 314.912 296.498 311.589 297.224 308.301C296.979 308.267 290.551 307.348 288.079 305.754C285.928 304.372 283.583 302.011 283.38 299.312C283.186 296.673 285.127 294.211 287.885 294.287C291.715 294.388 295.503 300.164 296.465 303.444C296.532 303.663 296.996 306.328 297.182 307.601C297.3 307.601 297.283 307.601 297.401 307.61C298.143 304.076 298.413 300.56 298.506 297.255C298.565 295.341 298.515 293.511 298.422 291.732C297.207 291.681 291.656 291.403 289.269 290.214C286.983 289.076 284.384 286.985 283.887 284.328C283.397 281.723 285.059 279.067 287.809 278.839C291.631 278.519 296.026 283.848 297.35 287.001C297.418 287.17 297.958 289 298.329 290.332C298.278 289.531 298.236 288.696 298.169 287.929C297.924 285.045 297.528 282.414 297.156 280.087C296.937 278.763 296.709 277.574 296.482 276.47C295.317 275.804 290.644 273.046 289.1 270.93C287.598 268.864 286.257 265.812 287.042 263.231C287.809 260.693 290.509 259.108 293.057 260.17C296.591 261.646 298.042 268.4 297.755 271.807C297.73 272.102 296.811 276.664 296.752 276.63C296.752 276.63 296.692 276.596 296.684 276.588C296.92 277.65 297.165 278.797 297.401 280.053C297.823 282.372 298.278 285.003 298.591 287.895C298.903 290.787 299.164 293.933 299.13 297.272C299.105 300.619 298.911 304.144 298.245 307.744C298.236 307.787 298.228 307.829 298.219 307.871C298.742 306.876 300.303 304.152 300.447 303.958C302.463 301.201 307.997 297.053 311.633 298.258C314.256 299.127 315.243 302.095 314.163 304.515C313.058 306.986 310.047 308.402 307.558 308.976C304.749 309.625 298.624 308.377 298.135 308.276C297.469 311.699 296.498 315.156 295.326 318.605C294.659 320.578 293.925 322.543 293.166 324.507C293.647 323.664 294.086 322.914 294.153 322.813C296.169 320.055 301.703 315.907 305.339 317.112C307.963 317.981 308.95 320.949 307.87 323.369C306.765 325.84 303.753 327.256 301.265 327.83C298.734 328.412 293.495 327.459 292.112 327.18C291.808 327.931 291.521 328.681 291.217 329.432C289.766 333.024 288.307 336.599 286.974 340.149C286.502 341.397 286.088 342.653 285.667 343.901C286.097 343.151 286.46 342.527 286.527 342.434C288.552 339.677 294.077 335.528 297.713 336.734C300.337 337.603 301.324 340.571 300.244 342.991C299.139 345.461 296.127 346.878 293.639 347.451C291.226 348.008 286.384 347.165 284.73 346.853C284.342 348.143 283.946 349.441 283.625 350.706C283.423 351.575 283.17 352.401 283.018 353.286C282.849 354.163 282.68 355.023 282.52 355.883C282.258 357.544 281.988 359.265 281.778 360.892C281.626 362.022 281.499 363.101 281.364 364.197C281.811 362.949 282.748 360.513 282.849 360.319C283.895 358.303 286.384 355.453 289.041 353.952C289.193 353.657 289.37 353.371 289.581 353.101C291.209 351.01 294.297 350.495 296.296 352.401C299.063 355.049 297.992 361.87 296.498 364.948C296.414 365.133 295.233 366.988 294.474 368.152C295.022 367.536 295.554 366.929 296.127 366.305C297.258 365.057 298.422 363.843 299.67 362.536C300.295 361.929 300.927 361.305 301.56 360.69C302.176 360.057 302.91 359.467 303.593 358.851C305.196 357.452 306.9 356.111 308.638 354.796C307.55 353.801 303.728 350.225 302.69 347.881C301.661 345.546 301.003 342.274 302.328 339.913C303.618 337.603 306.596 336.624 308.857 338.201C311.995 340.402 311.97 347.308 310.958 350.571C310.899 350.773 309.903 353.042 309.338 354.273C310.393 353.489 311.439 352.704 312.527 351.946C315.674 349.762 318.921 347.645 322.152 345.529C323.139 344.879 324.126 344.222 325.105 343.564C324.717 343.218 320.077 339.061 318.921 336.43C317.892 334.095 317.234 330.823 318.559 328.462C319.849 326.152 322.827 325.174 325.088 326.75C328.226 328.951 328.201 335.857 327.189 339.12C327.113 339.365 325.687 342.62 325.282 343.429C327.45 341.987 329.593 340.52 331.643 338.994C334.477 336.894 337.152 334.677 339.573 332.332C339.387 332.172 334.536 327.863 333.347 325.165C332.318 322.829 331.66 319.558 332.984 317.197C334.275 314.886 337.253 313.908 339.514 315.485C342.652 317.686 342.627 324.592 341.614 327.855C341.547 328.066 340.467 330.553 339.919 331.717C340.02 331.784 340.003 331.776 340.096 331.843C342.669 329.305 344.837 326.523 346.735 323.816C347.84 322.248 348.81 320.696 349.713 319.162C348.726 318.453 344.255 315.156 342.913 312.846C341.64 310.637 340.619 307.458 341.673 304.97C342.703 302.533 345.554 301.226 347.975 302.559C351.333 304.397 352.067 311.269 351.425 314.625C351.392 314.811 350.826 316.623 350.405 317.947C350.801 317.247 351.231 316.531 351.594 315.856C352.986 313.318 354.1 310.906 355.078 308.756C355.618 307.534 356.091 306.412 356.512 305.367C355.905 304.161 353.534 299.287 353.416 296.673C353.298 294.118 353.863 290.838 355.947 289.109C357.989 287.423 361.118 287.575 362.654 289.868C364.788 293.047 362.274 299.481 360.157 302.171C359.971 302.407 356.689 305.704 356.656 305.636C356.656 305.636 356.622 305.577 356.622 305.561C356.234 306.581 355.804 307.669 355.306 308.849C354.378 311.016 353.307 313.461 351.965 316.042C350.632 318.622 349.106 321.396 347.241 324.162C345.377 326.944 343.268 329.769 340.72 332.408C340.695 332.442 340.661 332.467 340.627 332.493C341.614 331.953 344.415 330.536 344.643 330.452C347.849 329.263 354.749 328.85 357.12 331.86C358.824 334.027 358.014 337.054 355.778 338.471C353.492 339.921 350.194 339.441 347.806 338.547C345.107 337.535 340.686 333.125 340.332 332.771C337.886 335.258 335.169 337.611 332.293 339.837C330.647 341.11 328.952 342.35 327.239 343.564C328.108 343.126 328.884 342.738 328.994 342.696C332.2 341.507 339.1 341.093 341.471 344.104C343.175 346.271 342.365 349.298 340.13 350.714C337.843 352.165 334.545 351.684 332.149 350.79C329.72 349.88 325.873 346.195 324.869 345.2C324.202 345.664 323.544 346.127 322.886 346.583C319.698 348.775 316.5 350.951 313.438 353.185C312.358 353.969 311.321 354.787 310.283 355.597C311.051 355.209 311.709 354.888 311.81 354.846C315.016 353.657 321.916 353.244 324.287 356.254C325.991 358.421 325.181 361.449 322.945 362.865C320.659 364.315 317.361 363.835 314.973 362.941C312.653 362.072 309.077 358.7 307.879 357.528C306.841 358.388 305.795 359.248 304.825 360.133C304.175 360.749 303.509 361.297 302.893 361.954C302.269 362.595 301.653 363.219 301.037 363.843C299.907 365.091 298.726 366.364 297.654 367.612C296.903 368.472 296.195 369.299 295.486 370.142C296.549 369.349 298.675 367.84 298.869 367.73C301.864 366.069 308.621 364.619 311.413 367.233C313.43 369.122 313.084 372.233 311.084 373.97C309.043 375.749 305.711 375.775 303.214 375.252C300.455 374.678 295.604 371.145 294.997 370.707C293.833 372.132 292.711 373.49 291.673 374.797Z" fill="#00AEFF"/>
<path d="M254.597 322.796C251.214 322.307 244.803 318.133 244.803 318.124C244.735 318.082 248.843 314.735 249.122 314.549C252.403 312.45 259.97 310.316 263.336 313.09C265.758 315.089 265.589 318.647 263.446 320.764C261.261 322.939 257.482 323.217 254.597 322.796Z" fill="#00AEFF"/>
<path d="M191.672 290.425C191.596 290.425 193.166 285.374 193.309 285.062C194.887 281.504 200.024 275.551 204.36 276.006C207.482 276.335 209.304 279.396 208.688 282.347C208.055 285.357 205.052 287.668 202.428 288.916C199.341 290.374 191.681 290.425 191.672 290.425Z" fill="#00AEFF"/>
<path d="M185.379 374.797C183.886 376.652 182.528 378.397 181.313 379.999H178.242C179.786 378.018 181.591 375.775 183.624 373.355C184.806 371.938 186.096 370.454 187.438 368.936C187.134 368.565 185.396 366.44 184.029 364.256C181.288 365.175 175.686 364.931 174.961 364.897C174.75 366.702 174.564 368.456 174.412 370.117C174.066 373.869 173.847 377.2 173.704 380.008H171.207C171.409 377.141 171.704 373.734 172.151 369.889C172.354 368.059 172.615 366.103 172.894 364.105C172.185 363.894 166.44 362.098 164.331 360.234C162.416 358.539 160.451 355.85 160.662 353.151C160.864 350.512 163.159 348.379 165.875 348.868C169.646 349.551 172.514 355.833 172.97 359.222C172.995 359.425 173.046 361.626 173.054 363.017C173.172 362.199 173.282 361.406 173.417 360.563C173.67 358.902 173.974 357.249 174.294 355.47C174.48 354.619 174.665 353.75 174.851 352.881C175.02 352.013 175.307 351.119 175.534 350.225C176.1 348.168 176.774 346.119 177.5 344.062C176.04 343.834 170.886 342.965 168.726 341.574C166.575 340.191 164.23 337.83 164.028 335.132C163.834 332.493 165.774 330.03 168.532 330.106C172.362 330.208 176.15 335.984 177.12 339.264C177.179 339.466 177.61 341.903 177.812 343.244C178.259 342.013 178.698 340.781 179.187 339.55C180.604 335.992 182.148 332.442 183.675 328.892C184.147 327.804 184.595 326.717 185.05 325.629C184.536 325.553 178.377 324.651 175.956 323.091C173.805 321.708 171.46 319.347 171.257 316.649C171.063 314.009 173.004 311.547 175.762 311.623C179.592 311.724 183.38 317.5 184.35 320.78C184.426 321.025 185.033 324.533 185.143 325.427C186.147 323.023 187.134 320.629 188.003 318.226C189.209 314.912 190.213 311.589 190.938 308.301C190.694 308.267 184.266 307.348 181.794 305.754C179.643 304.372 177.297 302.011 177.095 299.312C176.901 296.673 178.841 294.211 181.6 294.287C185.43 294.388 189.218 300.164 190.188 303.444C190.255 303.663 190.719 306.328 190.905 307.601C191.023 307.601 191.006 307.601 191.124 307.61C191.866 304.076 192.136 300.56 192.229 297.255C192.288 295.341 192.238 293.511 192.145 291.732C190.93 291.681 185.379 291.403 182.992 290.214C180.706 289.076 178.107 286.985 177.61 284.328C177.12 281.723 178.782 279.067 181.532 278.839C185.354 278.519 189.749 283.848 191.073 287.001C191.141 287.17 191.681 289 192.052 290.332C192.001 289.531 191.959 288.696 191.892 287.929C191.647 285.045 191.251 282.414 190.879 280.087C190.66 278.763 190.432 277.574 190.205 276.47C189.04 275.804 184.367 273.046 182.823 270.93C181.321 268.864 179.98 265.812 180.765 263.231C181.532 260.693 184.232 259.108 186.78 260.17C190.314 261.646 191.765 268.4 191.478 271.807C191.453 272.102 190.534 276.664 190.475 276.63C190.475 276.63 190.415 276.596 190.407 276.588C190.643 277.65 190.888 278.797 191.124 280.053C191.546 282.372 192.001 285.003 192.314 287.895C192.626 290.787 192.887 293.933 192.853 297.272C192.828 300.619 192.634 304.144 191.968 307.744C191.959 307.787 191.951 307.829 191.942 307.871C192.465 306.876 194.026 304.152 194.169 303.958C196.186 301.201 201.72 297.053 205.356 298.258C207.979 299.127 208.966 302.095 207.886 304.515C206.781 306.986 203.77 308.402 201.281 308.976C198.472 309.625 192.347 308.377 191.858 308.276C191.192 311.699 190.221 315.156 189.049 318.605C188.382 320.578 187.648 322.543 186.889 324.507C187.37 323.664 187.809 322.914 187.876 322.813C189.901 320.055 195.426 315.907 199.062 317.112C201.686 317.981 202.673 320.949 201.593 323.369C200.488 325.84 197.476 327.256 194.988 327.83C192.457 328.412 187.218 327.459 185.835 327.18C185.531 327.931 185.244 328.681 184.94 329.432C183.489 333.024 182.03 336.599 180.697 340.149C180.225 341.397 179.811 342.653 179.39 343.901C179.82 343.151 180.183 342.527 180.25 342.434C182.275 339.677 187.8 335.528 191.436 336.734C194.06 337.603 195.047 340.571 193.967 342.991C192.862 345.461 189.85 346.878 187.362 347.451C184.949 348.008 180.107 347.165 178.453 346.853C178.065 348.143 177.669 349.441 177.348 350.706C177.146 351.575 176.893 352.401 176.741 353.286C176.572 354.163 176.403 355.023 176.243 355.883C175.981 357.544 175.711 359.265 175.501 360.892C175.349 362.022 175.222 363.101 175.087 364.197C175.534 362.949 176.471 360.513 176.572 360.319C177.618 358.303 180.107 355.453 182.764 353.952C182.916 353.657 183.093 353.371 183.304 353.101C184.932 351.01 188.02 350.495 190.019 352.401C192.786 355.049 191.715 361.87 190.221 364.948C190.137 365.133 188.956 366.988 188.197 368.152C188.745 367.536 189.277 366.929 189.85 366.305C190.981 365.057 192.145 363.843 193.393 362.536C194.018 361.929 194.65 361.305 195.283 360.69C195.899 360.057 196.633 359.467 197.316 358.851C198.919 357.452 200.623 356.111 202.361 354.796C201.273 353.801 197.451 350.225 196.413 347.881C195.384 345.546 194.726 342.274 196.051 339.913C197.341 337.603 200.319 336.624 202.58 338.201C205.718 340.402 205.693 347.308 204.681 350.571C204.622 350.773 203.626 353.042 203.061 354.273C204.116 353.489 205.162 352.704 206.25 351.946C209.397 349.762 212.644 347.645 215.875 345.529C216.862 344.879 217.849 344.222 218.828 343.564C218.44 343.218 213.8 339.061 212.644 336.43C211.615 334.095 210.957 330.823 212.282 328.462C213.572 326.152 216.55 325.174 218.811 326.75C221.949 328.951 221.924 335.857 220.912 339.12C220.836 339.365 219.41 342.62 219.005 343.429C221.173 341.987 223.316 340.52 225.366 338.994C228.2 336.894 230.875 334.677 233.296 332.332C233.11 332.172 228.26 327.863 227.07 325.165C226.041 322.829 225.383 319.558 226.707 317.197C227.998 314.886 230.976 313.908 233.237 315.485C236.375 317.686 236.35 324.592 235.337 327.855C235.27 328.066 234.19 330.553 233.642 331.717C233.743 331.784 233.726 331.776 233.819 331.843C236.392 329.305 238.56 326.523 240.458 323.816C241.563 322.248 242.533 320.696 243.436 319.162C242.449 318.453 237.978 315.156 236.636 312.846C235.363 310.637 234.342 307.458 235.396 304.97C236.426 302.533 239.277 301.226 241.698 302.559C245.056 304.397 245.79 311.269 245.148 314.625C245.115 314.811 244.549 316.623 244.128 317.947C244.524 317.247 244.954 316.531 245.317 315.856C246.709 313.318 247.823 310.906 248.801 308.756C249.341 307.534 249.814 306.412 250.235 305.367C249.628 304.161 247.257 299.287 247.139 296.673C247.021 294.118 247.586 290.838 249.67 289.109C251.712 287.423 254.841 287.575 256.377 289.868C258.511 293.047 255.997 299.481 253.88 302.171C253.694 302.407 250.412 305.704 250.379 305.636C250.379 305.636 250.345 305.577 250.345 305.561C249.957 306.581 249.527 307.669 249.029 308.849C248.101 311.016 247.03 313.461 245.688 316.042C244.355 318.622 242.829 321.396 240.964 324.162C239.1 326.944 236.991 329.769 234.443 332.408C234.418 332.442 234.384 332.467 234.35 332.493C235.337 331.953 238.138 330.536 238.366 330.452C241.572 329.263 248.472 328.85 250.843 331.86C252.547 334.027 251.737 337.054 249.501 338.471C247.215 339.921 243.917 339.441 241.529 338.547C238.83 337.535 234.409 333.125 234.055 332.771C231.609 335.258 228.892 337.611 226.016 339.837C224.37 341.11 222.675 342.35 220.962 343.564C221.831 343.126 222.607 342.738 222.717 342.696C225.923 341.507 232.823 341.093 235.194 344.104C236.898 346.271 236.088 349.298 233.853 350.714C231.566 352.165 228.268 351.684 225.872 350.79C223.443 349.88 219.596 346.195 218.592 345.2C217.925 345.664 217.267 346.127 216.609 346.583C213.421 348.775 210.223 350.951 207.161 353.185C206.081 353.969 205.044 354.787 204.006 355.597C204.774 355.209 205.432 354.888 205.533 354.846C208.739 353.657 215.639 353.244 218.01 356.254C219.714 358.421 218.904 361.449 216.668 362.865C214.382 364.315 211.084 363.835 208.696 362.941C206.376 362.072 202.8 358.7 201.602 357.528C200.564 358.388 199.518 359.248 198.548 360.133C197.898 360.749 197.232 361.297 196.616 361.954C195.992 362.595 195.376 363.219 194.76 363.843C193.63 365.091 192.449 366.364 191.377 367.612C190.626 368.472 189.918 369.299 189.209 370.142C190.272 369.349 192.398 367.84 192.592 367.73C195.587 366.069 202.344 364.619 205.136 367.233C207.153 369.122 206.807 372.233 204.807 373.97C202.766 375.749 199.434 375.775 196.937 375.252C194.178 374.678 189.319 371.145 188.72 370.707C187.539 372.132 186.417 373.49 185.379 374.797Z" fill="#00AEFF"/>
<path d="M18.3711 329.179C21.3743 328.749 27.0686 325.039 27.0771 325.03C27.1361 324.988 23.4917 322.02 23.2387 321.86C20.3282 319.996 13.6047 318.099 10.6099 320.561C8.45874 322.332 8.61059 325.494 10.5087 327.383C12.4574 329.305 15.815 329.55 18.3711 329.179Z" fill="#00AEFF"/>
<path d="M74.2767 300.417C74.3441 300.417 72.9438 295.931 72.8257 295.653C71.4253 292.491 66.8614 287.204 63.0061 287.609C60.2307 287.904 58.6109 290.619 59.1593 293.241C59.7161 295.914 62.3903 297.972 64.7271 299.076C67.4688 300.366 74.2767 300.417 74.2767 300.417Z" fill="#00AEFF"/>
<path d="M79.8782 375.378C81.2026 377.023 82.409 378.574 83.4888 379.999H86.222C84.847 378.237 83.2526 376.247 81.4388 374.097C80.3843 372.84 79.237 371.516 78.0475 370.176C78.3175 369.847 79.8613 367.958 81.0761 366.019C83.5141 366.828 88.4913 366.617 89.1325 366.584C89.3181 368.186 89.4868 369.746 89.6218 371.221C89.9339 374.552 90.1279 377.512 90.246 380.008H92.4647C92.2876 377.461 92.026 374.434 91.6295 371.019C91.444 369.392 91.2162 367.655 90.9631 365.875C91.5874 365.681 96.6912 364.096 98.5724 362.435C100.268 360.934 102.023 358.539 101.837 356.145C101.652 353.801 99.6185 351.903 97.2058 352.342C93.8567 352.949 91.3005 358.531 90.904 361.541C90.8787 361.718 90.8366 363.675 90.8281 364.914C90.7185 364.189 90.6257 363.481 90.5076 362.739C90.2798 361.263 90.0183 359.796 89.7314 358.211C89.5712 357.452 89.4024 356.684 89.2337 355.909C89.0819 355.141 88.8288 354.34 88.6263 353.548C88.1202 351.726 87.5212 349.896 86.8801 348.075C88.1708 347.873 92.76 347.097 94.6749 345.866C96.5815 344.635 98.6736 342.535 98.8508 340.141C99.0279 337.796 97.2986 335.613 94.8521 335.68C91.4524 335.773 88.078 340.899 87.2259 343.817C87.1753 344.002 86.7957 346.161 86.6101 347.35C86.2136 346.254 85.8256 345.158 85.3869 344.07C84.1299 340.908 82.7548 337.754 81.3966 334.601C80.9833 333.631 80.5783 332.67 80.1734 331.7C80.6374 331.633 86.104 330.832 88.2551 329.44C90.1617 328.209 92.2538 326.11 92.431 323.715C92.6081 321.371 90.8787 319.187 88.4323 319.254C85.0326 319.347 81.6582 324.474 80.8061 327.391C80.7386 327.61 80.1987 330.722 80.1059 331.523C79.2117 329.39 78.3428 327.256 77.5667 325.123C76.4953 322.172 75.6011 319.221 74.9515 316.303C75.1624 316.269 80.882 315.46 83.0754 314.043C84.982 312.812 87.0741 310.713 87.2512 308.318C87.4284 305.974 85.699 303.79 83.2526 303.857C79.8444 303.95 76.4784 309.077 75.6264 311.994C75.5673 312.188 75.154 314.558 74.9853 315.687C74.8756 315.687 74.9009 315.687 74.7912 315.696C74.1332 312.559 73.8886 309.431 73.8042 306.496C73.7536 304.793 73.7958 303.166 73.8801 301.589C74.96 301.547 79.895 301.294 82.0125 300.24C84.0456 299.228 86.3486 297.373 86.7957 295.012C87.2259 292.702 85.7581 290.341 83.3116 290.138C79.9203 289.851 76.006 294.582 74.8334 297.39C74.7659 297.542 74.2935 299.161 73.9645 300.349C74.0151 299.633 74.0489 298.899 74.1079 298.216C74.3188 295.653 74.6731 293.317 75.0106 291.251C75.2046 290.079 75.4071 289.025 75.6095 288.039C76.6472 287.448 80.7977 284.995 82.1643 283.114C83.4972 281.276 84.6951 278.569 83.9949 276.267C83.3116 274.016 80.9158 272.599 78.6549 273.544C75.5167 274.851 74.226 280.854 74.4791 283.882C74.5044 284.143 75.3143 288.199 75.3733 288.165C75.3733 288.165 75.4239 288.14 75.4324 288.131C75.2215 289.076 75.0021 290.096 74.7912 291.209C74.4116 293.275 74.0067 295.602 73.7367 298.174C73.4583 300.737 73.2306 303.537 73.2559 306.505C73.2727 309.481 73.4499 312.61 74.0489 315.806C74.0573 315.839 74.0657 315.881 74.0742 315.915C73.6102 315.03 72.2267 312.61 72.1001 312.433C70.3033 309.979 65.3935 306.294 62.1625 307.365C59.8342 308.132 58.9568 310.772 59.9185 312.922C60.8971 315.114 63.5798 316.379 65.79 316.885C68.2871 317.458 73.7283 316.354 74.1585 316.261C74.7575 319.305 75.6095 322.374 76.6556 325.443C77.2461 327.197 77.8957 328.943 78.579 330.68C78.1488 329.929 77.7691 329.263 77.7017 329.179C75.9048 326.725 70.995 323.04 67.764 324.111C65.4357 324.878 64.5583 327.518 65.52 329.668C66.4986 331.86 69.1813 333.125 71.3915 333.631C73.6355 334.145 78.2922 333.302 79.5238 333.058C79.7938 333.724 80.0469 334.39 80.3168 335.056C81.6075 338.243 82.9067 341.422 84.0793 344.576C84.4927 345.689 84.8639 346.802 85.235 347.907C84.8554 347.24 84.5264 346.684 84.4758 346.608C82.6789 344.154 77.7691 340.469 74.5382 341.54C72.2098 342.308 71.3325 344.947 72.2942 347.097C73.2727 349.289 75.9554 350.554 78.1656 351.06C80.3084 351.549 84.6192 350.807 86.0786 350.529C86.4245 351.676 86.7788 352.822 87.0657 353.952C87.2428 354.728 87.4706 355.462 87.6056 356.246C87.7574 357.022 87.9008 357.789 88.0527 358.556C88.2804 360.032 88.5251 361.558 88.7107 363.008C88.8457 364.012 88.9638 364.973 89.0819 365.943C88.6769 364.83 87.8502 362.671 87.7574 362.502C86.8294 360.715 84.6192 358.177 82.2487 356.845C82.1137 356.583 81.9534 356.33 81.7678 356.094C80.3253 354.239 77.5751 353.775 75.8036 355.47C73.3402 357.823 74.2935 363.885 75.6264 366.617C75.7023 366.778 76.7484 368.43 77.4233 369.467C76.934 368.919 76.4616 368.38 75.9554 367.823C74.9515 366.719 73.9223 365.639 72.8088 364.476C72.252 363.936 71.6952 363.388 71.13 362.831C70.5817 362.266 69.9321 361.752 69.3247 361.196C67.899 359.948 66.389 358.759 64.8452 357.587C65.8153 356.71 69.2066 353.531 70.1261 351.44C71.0372 349.365 71.6193 346.456 70.4467 344.365C69.2994 342.316 66.6589 341.439 64.6427 342.847C61.8504 344.795 61.8757 350.934 62.7699 353.843C62.8289 354.02 63.7063 356.035 64.204 357.131C63.2676 356.44 62.3397 355.74 61.3695 355.065C58.5772 353.126 55.6921 351.246 52.8154 349.365C51.938 348.792 51.0691 348.202 50.1918 347.62C50.5377 347.308 54.6544 343.623 55.6836 341.287C56.5947 339.213 57.1852 336.312 56.0126 334.213C54.8653 332.164 52.2249 331.287 50.2086 332.695C47.4163 334.651 47.4416 340.781 48.3358 343.69C48.4033 343.91 49.6687 346.802 50.0315 347.519C48.1081 346.237 46.2015 344.938 44.3794 343.581C41.857 341.717 39.4865 339.744 37.3353 337.662C37.4956 337.518 41.8148 333.69 42.8693 331.295C43.7804 329.221 44.3709 326.312 43.1899 324.221C42.0426 322.163 39.4021 321.295 37.3859 322.703C34.5936 324.659 34.6189 330.789 35.5131 333.698C35.5721 333.892 36.5339 336.093 37.0147 337.13C36.9303 337.189 36.9472 337.181 36.8544 337.24C34.5683 334.989 32.6448 332.509 30.9576 330.106C29.9791 328.715 29.1186 327.332 28.3087 325.966C29.1861 325.334 33.1594 322.408 34.3489 320.359C35.4878 318.394 36.382 315.578 35.4456 313.36C34.5261 311.193 31.9953 310.038 29.8441 311.218C26.8577 312.854 26.2082 318.959 26.7818 321.944C26.8155 322.104 27.3133 323.723 27.6929 324.895C27.3386 324.271 26.959 323.639 26.63 323.04C25.3899 320.78 24.4028 318.639 23.5339 316.733C23.0531 315.645 22.6397 314.65 22.2601 313.723C22.8 312.652 24.909 308.326 25.0102 305.999C25.1115 303.731 24.6137 300.813 22.7578 299.279C20.9441 297.778 18.1686 297.921 16.802 299.953C14.9039 302.778 17.1394 308.495 19.0207 310.881C19.1809 311.084 22.0998 314.018 22.1251 313.967C22.1251 313.967 22.1504 313.917 22.1589 313.9C22.5047 314.802 22.8844 315.772 23.323 316.817C24.1498 318.748 25.0946 320.915 26.2841 323.209C27.4651 325.502 28.8233 327.965 30.4768 330.427C32.1387 332.897 34.0115 335.41 36.2723 337.754C36.2976 337.78 36.3314 337.805 36.3567 337.83C35.4793 337.35 32.9907 336.093 32.7883 336.017C29.9369 334.963 23.8039 334.592 21.7033 337.274C20.1848 339.205 20.9103 341.886 22.8928 343.151C24.9259 344.441 27.8532 344.019 29.9791 343.218C32.3749 342.324 36.3061 338.395 36.6182 338.083C38.7947 340.292 41.2074 342.383 43.7635 344.365C45.223 345.503 46.733 346.6 48.2599 347.679C47.4922 347.291 46.8005 346.945 46.6993 346.912C43.8479 345.858 37.7149 345.495 35.6143 348.168C34.0958 350.099 34.8213 352.78 36.8038 354.045C38.8369 355.335 41.7642 354.914 43.8901 354.113C46.0497 353.303 49.4663 350.031 50.3605 349.146C50.951 349.551 51.5331 349.972 52.1236 350.377C54.9581 352.325 57.7926 354.264 60.5175 356.246C61.4792 356.946 62.3987 357.662 63.3182 358.388C62.6349 358.042 62.0528 357.755 61.96 357.721C59.1087 356.667 52.9841 356.296 50.8751 358.978C49.3566 360.909 50.0821 363.59 52.0646 364.855C54.0977 366.145 57.025 365.724 59.1508 364.923C61.2092 364.155 64.3896 361.153 65.4525 360.116C66.3721 360.884 67.3 361.642 68.1605 362.427C68.7342 362.975 69.3247 363.464 69.873 364.046C70.4298 364.611 70.9781 365.167 71.5181 365.724C72.5219 366.828 73.568 367.967 74.5213 369.071C75.1877 369.83 75.812 370.572 76.4447 371.314C75.4999 370.606 73.6102 369.265 73.4415 369.172C70.7841 367.697 64.7777 366.407 62.2975 368.734C60.509 370.412 60.8127 373.169 62.5843 374.721C64.398 376.297 67.3591 376.323 69.5778 375.859C72.0242 375.345 76.3435 372.216 76.8749 371.82C77.9547 373.009 78.9502 374.215 79.8782 375.378Z" fill="#00AEFF"/>
<path d="M272.405 348.21H116.415C112.838 348.21 109.944 345.309 109.944 341.743V35.7248C109.944 32.1496 112.846 29.2574 116.415 29.2574H272.405C275.982 29.2574 278.876 32.1581 278.876 35.7248V341.743C278.876 345.318 275.982 348.21 272.405 348.21Z" fill="#263238" stroke="#263238" stroke-miterlimit="10" stroke-linecap="round" stroke-linejoin="round"/>
<path d="M271.368 64.2759H117.444V313.192H271.368V64.2759Z" fill="white" stroke="#263238" stroke-miterlimit="10" stroke-linecap="round" stroke-linejoin="round"/>
<path d="M211.143 46.8552H177.677C176.42 46.8552 175.399 45.8349 175.399 44.5785C175.399 43.3222 176.42 42.3019 177.677 42.3019H211.143C212.4 42.3019 213.421 43.3222 213.421 44.5785C213.421 45.8349 212.4 46.8552 211.143 46.8552Z" fill="white"/>
<path d="M203.533 327.248C203.533 322.205 199.45 318.124 194.406 318.124C189.369 318.124 185.278 322.205 185.278 327.248C185.278 332.29 189.361 336.371 194.406 336.371C199.45 336.371 203.533 332.282 203.533 327.248Z" fill="white" stroke="#263238" stroke-width="0.7043" stroke-miterlimit="10" stroke-linecap="round" stroke-linejoin="round"/>
<path d="M199.037 322.619H189.783V331.869H199.037V322.619Z" fill="#263238"/>
<path d="M282.798 218.803L281.803 226.391C281.803 226.391 277.686 254.58 280.538 269.151C283.389 283.721 288.78 298.604 289.092 302.086C289.412 305.569 287.506 319.187 289.724 330.275C291.943 341.363 296.06 363.211 296.06 363.211L292.576 371.449C292.576 371.449 285.287 376.196 284.334 377.781C283.38 379.367 284.966 379.999 284.966 379.999H307.777C307.777 379.999 308.731 378.102 308.731 374.611C308.731 371.129 308.731 354.661 308.731 352.443C308.731 350.225 309.996 312.534 311.262 305.889C312.527 299.236 313.792 248.88 313.792 248.88H315.058C315.058 248.88 321.081 298.924 322.659 304.304C324.245 309.692 330.901 332.805 332.799 337.56C334.697 342.308 336.916 358.784 338.189 362.899C339.455 367.014 340.72 371.769 341.041 374.299C341.361 376.829 342.627 379.999 342.627 379.999H359.735C359.735 379.999 360.056 377.149 358.782 375.252C357.516 373.355 349.274 365.116 348.009 359.096C346.743 353.075 349.907 325.207 349.595 315.392C349.274 305.577 346.423 304.304 346.423 295.754C346.423 287.204 349.595 261.233 349.595 248.88C349.595 236.527 347.95 225.144 344.812 218.642L340.408 214.359H285.911L282.798 218.803Z" fill="#D9D9D9" stroke="#263238" stroke-miterlimit="10" stroke-linecap="round" stroke-linejoin="round"/>
<path d="M350.599 364.754L350.557 364.796C350.557 364.796 346.119 361.946 344.533 364.164C342.947 366.381 342.947 367.646 342.947 367.646H339.573C340.281 370.268 340.847 372.714 341.049 374.299C341.37 376.829 342.635 379.999 342.635 379.999H359.743C359.743 379.999 360.064 377.149 358.79 375.252C357.904 373.903 353.534 369.4 350.599 364.754Z" fill="#00AEFF" stroke="#263238" stroke-miterlimit="10" stroke-linecap="round" stroke-linejoin="round"/>
<path d="M342.644 379.999H359.752C359.752 379.999 359.862 379.004 359.693 377.798H341.876C342.264 379.063 342.644 379.999 342.644 379.999Z" fill="white" stroke="#263238" stroke-miterlimit="10" stroke-linecap="round" stroke-linejoin="round"/>
<path d="M308.739 374.619C308.739 373.641 308.739 371.651 308.739 369.231H302.716C302.716 369.231 303.036 366.702 300.185 364.796C297.334 362.899 294.482 367.326 294.482 367.326H294.322L292.576 371.44C292.576 371.44 285.287 376.188 284.334 377.773C283.38 379.358 284.966 379.991 284.966 379.991H307.777C307.786 379.999 308.739 378.102 308.739 374.619Z" fill="#00AEFF" stroke="#263238" stroke-miterlimit="10" stroke-linecap="round" stroke-linejoin="round"/>
<path d="M284.325 377.798C283.397 379.367 284.966 379.999 284.966 379.999H307.777C307.777 379.999 308.157 379.24 308.435 377.798H284.325Z" fill="white" stroke="#263238" stroke-miterlimit="10" stroke-linecap="round" stroke-linejoin="round"/>
<path d="M347.942 347.417C348.474 336.633 349.823 321.961 349.612 315.392C349.292 305.577 346.44 304.304 346.44 295.754C346.44 287.204 349.612 261.233 349.612 248.88C349.612 236.527 347.967 225.144 344.829 218.642L340.426 214.359H285.929L282.807 218.811L281.812 226.4C281.812 226.4 277.695 254.588 280.547 269.159C283.398 283.73 288.789 298.612 289.101 302.095C289.421 305.577 287.515 319.195 289.733 330.283C290.704 335.149 292.045 342.088 293.243 348.353C296.946 349.154 302.843 350.116 308.807 349.762C309.086 340.587 310.182 311.648 311.279 305.898C312.544 299.245 313.81 248.888 313.81 248.888H315.075C315.075 248.888 321.099 298.933 322.676 304.313C324.262 309.701 330.918 332.813 332.816 337.569C333.626 339.592 334.495 343.749 335.322 348.168C338.73 348.75 343.108 348.859 347.942 347.417Z" fill="white" stroke="#263238" stroke-miterlimit="10" stroke-linecap="round" stroke-linejoin="round"/>
<path d="M318.871 246.03L335.988 232.412" stroke="#263238" stroke-miterlimit="10" stroke-linecap="round" stroke-linejoin="round"/>
<path d="M293.841 233.677L302.716 240.962" stroke="#263238" stroke-miterlimit="10" stroke-linecap="round" stroke-linejoin="round"/>
<path d="M331.036 80.2042C331.036 80.2042 323.755 75.9038 323.924 78.2226C324.093 80.5414 327.231 82.1941 327.231 82.1941C327.231 82.1941 316.812 80.7101 315.159 81.3678C313.506 82.0255 316.315 82.8518 316.315 82.8518C316.315 82.8518 303.416 92.7764 298.945 99.5474C294.474 106.318 290.509 116.243 295.14 123.849C299.772 131.454 306.554 137.408 317.968 140.713C329.382 144.018 340.627 140.544 348.237 137.408C355.846 134.262 363.455 125.341 362.131 114.093C360.806 102.853 350.886 91.1069 343.437 83.1723C335.996 75.2377 331.365 76.3929 331.365 77.5481C331.365 78.7201 331.036 80.2042 331.036 80.2042Z" fill="#263238" stroke="#263238" stroke-miterlimit="10" stroke-linecap="round" stroke-linejoin="round"/>
<path d="M313.219 127.171L311.515 139.887C311.515 139.887 299.443 143.858 294.972 145.671C290.509 147.492 288.518 149.803 287.691 151.793C286.864 153.774 275.02 181.271 274.523 183.911C274.025 186.558 274.852 187.713 278.496 189.366C282.132 191.019 292.221 184.906 292.221 184.906L293.546 189.535C293.546 189.535 286.932 200.775 285.768 204.417C284.612 208.052 282.79 218.803 282.79 218.803C282.79 218.803 295.36 225.085 315.21 224.587C335.06 224.09 344.82 218.634 344.82 218.634C344.82 218.634 342.669 207.883 340.357 201.601C338.046 195.319 336.055 192.84 336.055 190.361C336.055 187.882 343.335 174.981 343.335 174.981L358.714 182.224C358.714 182.224 355.078 169.686 354.091 161.254C353.096 152.821 351.375 151.455 348.068 148.479C344.761 145.502 330.2 141.202 329.703 140.873C329.205 140.544 330.361 126.657 330.361 126.657C330.361 126.657 317.85 129.987 313.219 127.171Z" fill="#D9D9D9" stroke="#263238" stroke-miterlimit="10" stroke-linecap="round" stroke-linejoin="round"/>
<path d="M322.81 135.89C325.122 135.021 327.872 132.854 330.04 130.906C330.209 128.529 330.369 126.673 330.369 126.673C330.369 126.673 317.85 129.996 313.21 127.179L312.08 135.645C314.644 137.913 318.829 137.382 322.81 135.89Z" fill="#263238" stroke="#263238" stroke-miterlimit="10" stroke-linecap="round" stroke-linejoin="round"/>
<path d="M340.366 201.61C338.046 195.328 336.063 192.849 336.063 190.37C336.063 187.891 343.344 174.989 343.344 174.989L358.723 182.233C358.723 182.233 355.087 169.694 354.1 161.262C353.56 156.7 352.809 154.213 351.712 152.417C328.142 155.41 301.965 150.039 291.487 147.501C289.387 148.909 288.273 150.435 287.7 151.801C286.873 153.783 275.029 181.28 274.531 183.919C274.033 186.567 274.86 187.722 278.504 189.375C282.14 191.027 292.23 184.914 292.23 184.914L293.554 189.543C293.554 189.543 286.94 200.783 285.776 204.426C284.621 208.06 282.798 218.811 282.798 218.811C282.798 218.811 295.368 225.093 315.218 224.595C335.068 224.098 344.828 218.642 344.828 218.642C344.828 218.642 342.677 207.892 340.366 201.61Z" fill="#00AEFF" stroke="#263238" stroke-miterlimit="10" stroke-linecap="round" stroke-linejoin="round"/>
<path d="M294.356 180.361C294.356 180.361 291.057 173.472 291.96 169.88C292.863 166.288 293.462 165.385 293.462 165.385" stroke="#263238" stroke-miterlimit="10" stroke-linecap="round" stroke-linejoin="round"/>
<path d="M354.091 161.27C353.551 156.709 352.801 154.221 351.704 152.425C328.134 155.419 301.957 150.047 291.479 147.509C289.378 148.917 288.265 150.444 287.691 151.81C287.396 152.509 285.743 156.371 283.693 161.195C292.964 163.699 328.522 172.519 355.289 168.396C354.783 165.933 354.353 163.463 354.091 161.27Z" fill="#00AEFF" stroke="#263238" stroke-miterlimit="10" stroke-linecap="round" stroke-linejoin="round"/>
<path d="M316.45 96.4275L337.565 110.012L336.983 115.501C336.983 115.501 340.745 111.74 341.319 115.788C341.901 119.835 340.45 121.859 337.852 123.014C335.245 124.169 333.803 123.882 333.803 123.882C333.803 123.882 327.442 130.822 322.81 132.559C318.179 134.296 313.286 134.751 310.966 130.991C308.655 127.23 305.458 120.417 306.326 116.369C307.195 112.322 315.007 96.4191 315.007 96.4191H316.45V96.4275Z" fill="#D9D9D9" stroke="#263238" stroke-miterlimit="10" stroke-linecap="round" stroke-linejoin="round"/>
<path d="M318.525 109.27C318.525 109.27 318.525 111.091 317.53 112.078C316.534 113.072 314.223 114.396 314.223 115.383C314.223 116.378 316.374 118.359 318.356 118.191" stroke="#263238" stroke-miterlimit="10" stroke-linecap="round" stroke-linejoin="round"/>
<path d="M314.881 120.349C314.881 120.349 317.859 122.668 321.494 120.181" stroke="#263238" stroke-miterlimit="10" stroke-linecap="round" stroke-linejoin="round"/>
<path d="M322.819 111.749C322.819 111.749 326.455 110.425 328.446 113.233" stroke="#263238" stroke-miterlimit="10" stroke-linecap="round" stroke-linejoin="round"/>
<path d="M311.574 110.096C311.574 110.096 314.552 108.772 316.036 110.425" stroke="#263238" stroke-miterlimit="10" stroke-linecap="round" stroke-linejoin="round"/>
<path d="M313.396 104.472C313.396 104.472 314.881 102.322 318.027 103.148" stroke="#263238" stroke-miterlimit="10" stroke-linecap="round" stroke-linejoin="round"/>
<path d="M324.481 104.801C324.481 104.801 329.112 104.969 330.108 109.261" stroke="#263238" stroke-miterlimit="10" stroke-linecap="round" stroke-linejoin="round"/>
<path d="M282.132 178.463C282.132 178.463 277.003 180.445 275.349 183.59C273.696 186.735 274.025 194.004 280.478 195.825C286.932 197.646 334.57 188.051 334.57 188.051C334.57 188.051 337.219 192.022 338.375 193.177C339.531 194.333 342.509 196.651 342.677 197.638C342.846 198.625 343.175 204.915 344.499 205.244C345.824 205.573 345.326 202.267 345.326 202.267C345.326 202.267 347.477 199.122 347.477 197.638C347.477 196.154 347.806 191.356 347.477 190.201C347.148 189.046 339.37 182.266 337.717 181.769C336.063 181.271 293.715 180.116 289.75 179.45C285.776 178.792 283.456 178.295 282.132 178.463Z" fill="#D9D9D9" stroke="#263238" stroke-miterlimit="10" stroke-linecap="round" stroke-linejoin="round"/>
<path d="M324.295 132.964L329.365 136.328C330.259 136.927 331.474 136.682 332.065 135.78L342.281 120.417C342.88 119.523 342.635 118.309 341.732 117.719L336.662 114.354C335.768 113.755 334.553 114 333.963 114.902L323.747 130.266C323.156 131.159 323.393 132.365 324.295 132.964Z" fill="#00AEFF" stroke="#263238" stroke-miterlimit="10"/>
<path d="M339.497 133.234C339.497 133.234 340.543 130.552 341.581 128.613C342.627 126.673 342.627 125.78 341.876 125.78C341.134 125.78 339.193 126.673 338.594 128.908C337.995 131.143 338.299 133.824 338.299 133.824L339.497 133.234Z" fill="#D9D9D9" stroke="#263238" stroke-miterlimit="10"/>
<path d="M330.555 143.512C330.555 143.512 339.05 135.021 339.345 134.279C339.598 133.638 339.303 123.866 339.219 121.134C339.202 120.72 338.906 120.375 338.501 120.307C337.995 120.214 337.514 120.577 337.472 121.091L336.806 128.925L334.857 119.059C334.773 118.646 334.418 118.351 333.997 118.351C333.499 118.351 333.094 118.773 333.119 119.27L333.668 130.266L331.221 120.881C331.095 120.392 330.588 120.096 330.099 120.231C329.669 120.349 329.382 120.763 329.433 121.209L330.538 131.311L328.454 133.099V129.524L325.957 125.324C325.772 125.004 325.367 124.886 325.038 125.055C324.7 125.223 324.557 125.628 324.709 125.974L326.371 129.675C326.371 129.675 323.089 143.082 322.945 143.529C322.794 143.976 323.544 146.362 323.992 147.256C324.439 148.15 344.407 190.445 345.596 192.09C346.786 193.726 354.834 196.264 358.41 192.385C361.987 188.515 360.798 184.644 358.858 180.175C356.926 175.681 330.555 143.512 330.555 143.512Z" fill="#D9D9D9" stroke="#263238" stroke-miterlimit="10"/>
<path d="M191.875 148.116C211.443 148.116 227.306 132.261 227.306 112.701C227.306 93.1424 211.443 77.2867 191.875 77.2867C172.307 77.2867 156.444 93.1424 156.444 112.701C156.444 132.261 172.307 148.116 191.875 148.116Z" fill="#00AEFF"/>
<path d="M213.505 96.6721H171.51L192.212 116.622L213.505 96.6721Z" fill="#263238"/>
<path d="M200.623 112.212L215.243 125.122V98.5103L200.623 112.212Z" fill="#263238"/>
<path d="M183.962 112.179L169.148 97.9116V124.515L183.962 112.179Z" fill="#263238"/>
<path d="M198.767 113.949L192.187 120.105L185.793 113.949L170.38 126.783H213.302L198.767 113.949Z" fill="#263238"/>
<path d="M191.875 225.692C211.443 225.692 227.306 209.836 227.306 190.277C227.306 170.718 211.443 154.862 191.875 154.862C172.307 154.862 156.444 170.718 156.444 190.277C156.444 209.836 172.307 225.692 191.875 225.692Z" fill="#00AEFF"/>
<path d="M187.142 179.104C187.648 179.964 188.517 180.175 189.395 179.703C190.55 179.071 191.706 178.438 192.794 177.705C193.208 177.426 193.436 176.861 193.722 176.448C193.511 175.942 193.402 175.605 193.233 175.301C192.769 174.467 192.28 173.64 191.807 172.814C190.179 169.998 188.551 167.173 186.923 164.357C186.265 163.227 185.438 163.007 184.299 163.657C183.262 164.247 182.216 164.837 181.195 165.461C180.326 165.992 180.073 166.836 180.562 167.696C182.739 171.507 184.932 175.31 187.142 179.104Z" fill="#263238"/>
<path d="M211.463 206.854C209.329 203.144 207.195 199.434 205.035 195.732C204.445 194.712 203.635 194.493 202.614 195.058C201.543 195.648 200.471 196.264 199.425 196.896C198.548 197.419 198.278 198.262 198.725 199.131L205.71 211.037C206.216 211.484 206.891 211.543 207.557 211.18C208.688 210.564 209.827 209.949 210.89 209.232C211.311 208.945 211.573 208.414 211.885 208.01C211.708 207.512 211.632 207.158 211.463 206.854Z" fill="#263238"/>
<path d="M197.004 199.898C195.519 200.421 194.119 200.26 192.752 199.527C192.044 199.147 191.343 198.717 190.744 198.186C187.547 195.361 185.523 191.82 184.544 187.697C183.928 185.133 183.759 182.62 185.7 180.622L178.512 168.362C177.947 168.724 177.407 169.07 176.893 169.433C174.741 170.934 173.552 173.008 173.746 175.622C173.931 178.109 174.185 180.647 174.834 183.051C177.154 191.626 181.499 199.156 187.235 205.893C189.437 208.473 191.892 210.801 194.836 212.554C197.873 214.367 201.484 214.182 204.183 212.124L197.004 199.898Z" fill="#263238"/>
<path d="M191.875 303.267C211.443 303.267 227.306 287.411 227.306 267.852C227.306 248.293 211.443 232.437 191.875 232.437C172.307 232.437 156.444 248.293 156.444 267.852C156.444 287.411 172.307 303.267 191.875 303.267Z" fill="#00AEFF"/>
<path d="M186.653 274.497H178.782V278.485C178.782 281.082 180.798 283.207 183.346 283.384L186.653 274.497Z" fill="#263238"/>
<path d="M208.595 260.828H205.187V267.776C205.187 271.486 202.167 274.497 198.463 274.497H198.345L186.307 283.401H199.375L196.144 292.086L207.878 283.401H208.587C211.303 283.401 213.505 281.2 213.505 278.485V265.753C213.513 263.029 211.312 260.828 208.595 260.828Z" fill="#263238"/>
<path d="M198.463 250.119H173.569C170.852 250.119 168.651 252.32 168.651 255.035V267.768C168.651 270.483 170.852 272.684 173.569 272.684H189.251L186.02 281.369L197.755 272.684H198.463C201.18 272.684 203.382 270.483 203.382 267.768V255.035C203.382 252.32 201.18 250.119 198.463 250.119Z" fill="#263238"/>
<path d="M179.196 262.844C180.169 262.844 180.959 262.055 180.959 261.081C180.959 260.108 180.169 259.319 179.196 259.319C178.222 259.319 177.432 260.108 177.432 261.081C177.432 262.055 178.222 262.844 179.196 262.844Z" fill="#00AEFF"/>
<path d="M188.129 261.081C188.129 262.051 187.345 262.844 186.366 262.844C185.396 262.844 184.603 262.059 184.603 261.081C184.603 260.103 185.388 259.319 186.366 259.319C187.345 259.319 188.129 260.112 188.129 261.081Z" fill="#00AEFF"/>
<path d="M195.308 261.081C195.308 262.051 194.524 262.844 193.545 262.844C192.575 262.844 191.782 262.059 191.782 261.081C191.782 260.103 192.567 259.319 193.545 259.319C194.524 259.319 195.308 260.112 195.308 261.081Z" fill="#00AEFF"/>
<path d="M106.814 164.652L107.456 163.783L117.908 149.55C117.908 149.55 119.325 141.059 120.034 138.934C120.742 136.809 122.16 132.331 122.632 130.679C123.104 129.026 123.577 127.137 124.522 127.846C125.466 128.554 125.466 131.387 124.994 132.804C124.522 134.22 124.522 136.109 124.758 136.817C124.994 137.526 137.505 126.91 138.686 127.854C139.867 128.798 138.213 133.284 135.851 136.345C133.489 139.414 123.813 150.503 123.813 150.503C123.813 150.503 112.72 180.226 109.413 184.948C106.106 189.67 105.397 187.545 102.099 184.948C98.7917 182.351 94.5484 176.457 94.5484 176.457L106.814 164.652Z" fill="white" stroke="#263238" stroke-miterlimit="10" stroke-linecap="round" stroke-linejoin="round"/>
<path d="M124.049 144.836C124.049 144.836 125.23 140.586 126.411 139.642C127.592 138.698 132.072 135.864 132.072 135.864L135.143 126.429C135.143 126.429 136.087 125.721 135.851 127.846C135.615 129.97 135.143 134.684 134.434 136.809C133.725 138.934 130.655 142.703 130.655 142.703" fill="white"/>
<path d="M124.049 144.836C124.049 144.836 125.23 140.586 126.411 139.642C127.592 138.698 132.072 135.864 132.072 135.864L135.143 126.429C135.143 126.429 136.087 125.721 135.851 127.846C135.615 129.97 135.143 134.684 134.434 136.809C133.725 138.934 130.655 142.703 130.655 142.703" stroke="#263238" stroke-miterlimit="10" stroke-linecap="round" stroke-linejoin="round"/>
<path d="M89.8242 128.554L107.995 164.179L94.0676 178.337L90.0605 164.888L89.8242 128.554Z" fill="#00AEFF" stroke="#263238" stroke-miterlimit="10" stroke-linecap="round" stroke-linejoin="round"/>
<path d="M92.4057 172.755L94.0676 178.337L107.995 164.179L105.49 159.272L92.4057 172.755Z" fill="#263238" stroke="#263238" stroke-miterlimit="10"/>
<path d="M46.2437 363.118L44.565 369.805C44.565 369.805 34.6695 375.286 33.9102 376.044C33.151 376.803 33.4547 379.999 33.4547 379.999H61.7745C61.7745 379.999 62.0781 376.803 61.1671 372.697C60.6356 370.319 60.3825 363.75 60.3825 363.75L46.2437 363.118Z" fill="#263238" stroke="#263238" stroke-miterlimit="10" stroke-linecap="round" stroke-linejoin="round"/>
<path d="M33.4547 379.999H61.7744C61.7744 379.999 61.8419 379.308 61.8166 378.169H33.4041C33.3703 379.122 33.4547 379.999 33.4547 379.999Z" fill="white" stroke="#263238" stroke-miterlimit="10" stroke-linecap="round" stroke-linejoin="round"/>
<path d="M34.5176 375.741C34.5176 375.741 36.8038 373.456 41.3677 372.697C45.9316 371.938 50.0484 373.608 50.9594 374.527C51.8705 375.437 52.4779 378.026 52.4779 378.026L33.3956 378.178C33.4041 378.169 32.3917 376.348 34.5176 375.741Z" fill="white" stroke="#263238" stroke-miterlimit="10" stroke-linecap="round" stroke-linejoin="round"/>
<path d="M58.8809 368.506C58.8809 370.142 58.2988 371.474 57.5902 371.474C56.8731 371.474 56.2995 370.142 56.2995 368.506C56.2995 366.87 56.8815 365.538 57.5902 365.538C58.2988 365.546 58.8809 366.87 58.8809 368.506Z" fill="white" stroke="#263238" stroke-miterlimit="10" stroke-linecap="round" stroke-linejoin="round"/>
<path d="M116.946 363.118L118.625 369.805C118.625 369.805 128.52 375.286 129.28 376.044C130.039 376.803 129.735 379.999 129.735 379.999H101.415C101.415 379.999 101.112 376.803 102.023 372.697C102.554 370.319 102.807 363.75 102.807 363.75L116.946 363.118Z" fill="#263238" stroke="#263238" stroke-miterlimit="10" stroke-linecap="round" stroke-linejoin="round"/>
<path d="M129.735 379.999H101.415C101.415 379.999 101.348 379.308 101.373 378.169H129.786C129.819 379.122 129.735 379.999 129.735 379.999Z" fill="white" stroke="#263238" stroke-miterlimit="10" stroke-linecap="round" stroke-linejoin="round"/>
<path d="M128.672 375.741C128.672 375.741 126.386 373.456 121.822 372.697C117.258 371.938 113.141 373.608 112.23 374.527C111.319 375.437 110.712 378.026 110.712 378.026L129.794 378.178C129.786 378.169 130.798 376.348 128.672 375.741Z" fill="white" stroke="#263238" stroke-miterlimit="10" stroke-linecap="round" stroke-linejoin="round"/>
<path d="M104.309 368.506C104.309 370.142 104.891 371.474 105.6 371.474C106.317 371.474 106.89 370.142 106.89 368.506C106.89 366.87 106.308 365.538 105.6 365.538C104.891 365.546 104.309 366.87 104.309 368.506Z" fill="white" stroke="#263238" stroke-miterlimit="10" stroke-linecap="round" stroke-linejoin="round"/>
<path d="M45.9316 221.189L44.9868 235.945L46.2437 363.118L60.3825 363.75L74.5213 246.308L76.4025 245.676L102.807 363.75L116.946 363.118L110.653 283.991L101.154 216.079L45.9316 221.189Z" fill="white" stroke="#263238" stroke-miterlimit="10" stroke-linecap="round" stroke-linejoin="round"/>
<path d="M75.7614 225.194V235.962L78.6971 231.071L79.1864 223.727" stroke="#808080" stroke-miterlimit="10" stroke-linecap="round" stroke-linejoin="round"/>
<path d="M55.5995 126.901C55.5995 126.901 23.7366 140.823 23.2642 142.239C22.7918 143.656 14.2967 178.809 15.714 182.106C17.1312 185.411 21.3745 188 25.8625 186.356C30.3505 184.703 34.5938 167.485 34.5938 167.485C34.5938 167.485 44.5061 197.68 44.5061 200.749C44.5061 203.819 45.451 222.69 45.451 222.69C45.451 222.69 63.6222 225.287 78.7311 221.745C93.84 218.204 101.154 216.087 101.154 216.087L94.0762 172.915C94.0762 172.915 90.2969 130.215 89.8245 128.562C89.352 126.91 62.4495 126.437 60.3237 126.673C58.1978 126.901 55.5995 126.901 55.5995 126.901Z" fill="#00AEFF" stroke="#263238" stroke-miterlimit="10" stroke-linecap="round" stroke-linejoin="round"/>
<path d="M31.4301 177.586C30.2237 173.902 28.081 170.428 25.8032 168.404C23.1712 166.068 19.6703 167.392 17.2744 168.842C16.009 175.394 15.1907 180.9 15.7138 182.106C17.131 185.411 21.3743 188 25.8623 186.356C27.8869 185.605 29.8694 181.676 31.4301 177.586Z" fill="#263238" stroke="#263238" stroke-miterlimit="10"/>
<path d="M40.7519 186.862L94.5062 175.571L94.0676 172.907C94.0676 172.907 93.9916 172.03 93.8567 170.537L39.2418 182.005C39.7564 183.615 40.2626 185.251 40.7519 186.862Z" fill="#263238"/>
<path d="M101.154 216.079L95.8476 183.75L43.0718 194.678C43.9323 197.722 44.4975 200.016 44.4975 200.749C44.4975 203.819 45.4423 222.69 45.4423 222.69C45.4423 222.69 63.6135 225.287 78.7224 221.745C93.8314 218.204 101.154 216.079 101.154 216.079Z" fill="#263238" stroke="#263238" stroke-miterlimit="10"/>
<path d="M60.315 126.665C58.1891 126.901 55.5908 126.901 55.5908 126.901C55.5908 126.901 49.6097 129.515 42.8018 132.584L70.3708 161.06C70.3708 161.06 76.2507 132.669 75.7614 130.215C75.5505 129.161 75.1624 127.93 74.7828 126.867C68.0255 126.606 61.3358 126.555 60.315 126.665Z" fill="#263238" stroke="#263238" stroke-miterlimit="10"/>
<path d="M69.2909 118.646C69.2909 118.646 70.7082 130.915 71.4168 133.276C72.1254 135.637 67.4013 152.147 67.4013 152.147C67.4013 152.147 53.7096 138.225 52.0561 134.22C50.4027 130.215 46.6233 116.294 46.6233 116.294C46.6233 116.294 58.67 122.424 69.2909 118.646Z" fill="white" stroke="#263238" stroke-miterlimit="10" stroke-linecap="round" stroke-linejoin="round"/>
<path d="M46.6318 116.285C46.6318 116.285 47.4922 119.464 48.572 123.216C49.1457 123.537 49.8375 123.899 50.6811 124.321C54.9834 126.471 59.7582 127.66 65.0139 126.943C67.2663 126.64 68.7679 125.223 69.873 123.402C69.5356 120.763 69.2909 118.646 69.2909 118.646C58.67 122.424 46.6318 116.285 46.6318 116.285Z" fill="#263238" stroke="#263238" stroke-miterlimit="10" stroke-linecap="round" stroke-linejoin="round"/>
<path d="M63.2254 87.6834C63.2254 87.6834 66.8108 94.8423 69.1982 97.9537C71.5855 101.057 75.4071 107.98 73.7367 112.035C72.0664 116.083 70.9697 123.006 65.6128 123.739C60.3572 124.456 55.5824 123.258 51.28 121.117C46.9777 118.967 46.5052 118.25 46.5052 118.25C46.5052 118.25 42.9199 118.25 40.7687 116.58C38.6176 114.911 34.3152 109.657 35.5131 105.121C36.711 100.585 39.5708 100.104 39.5708 100.104C39.5708 100.104 33.5981 97.7176 37.4196 91.7477C41.2412 85.7778 49.3651 83.6276 53.1866 83.6276C57.0081 83.6276 63.2254 87.6834 63.2254 87.6834Z" fill="white" stroke="#263238" stroke-miterlimit="10" stroke-linecap="round" stroke-linejoin="round"/>
<path d="M62.0275 95.559C62.0275 95.559 62.5084 96.5119 64.1787 97.7092C65.849 98.9066 68.2364 98.1898 67.5194 100.332C66.8023 102.482 65.132 103.199 63.6978 102.954" stroke="#263238" stroke-miterlimit="10" stroke-linecap="round" stroke-linejoin="round"/>
<path d="M67.764 105.593C67.764 105.593 63.2254 108.216 60.121 107.979C57.0165 107.743 55.5824 106.546 55.5824 106.546" stroke="#263238" stroke-miterlimit="10" stroke-linecap="round" stroke-linejoin="round"/>
<path d="M57.7252 107.98C57.7252 107.98 59.3955 113.949 61.7829 112.035C64.1703 110.121 64.6511 107.018 64.6511 107.018C64.6511 107.018 61.0743 108.452 57.7252 107.98Z" fill="#263238" stroke="#263238" stroke-miterlimit="10" stroke-linecap="round" stroke-linejoin="round"/>
<path d="M57.489 97.6333C58.0204 98.4597 58.0373 99.3956 57.5227 99.7245C57.0165 100.045 56.1729 99.6402 55.6415 98.8054C55.11 97.979 55.0931 97.0431 55.6077 96.7142C56.1223 96.3938 56.9659 96.7985 57.489 97.6333Z" fill="#263238"/>
<path d="M65.1235 94.0244C65.655 94.8507 65.6719 95.7867 65.1573 96.1155C64.6427 96.4444 63.8075 96.0312 63.2761 95.1964C62.7446 94.3701 62.7277 93.4341 63.2423 93.1053C63.7569 92.7764 64.5921 93.198 65.1235 94.0244Z" fill="#263238"/>
<path d="M52.4864 96.9166C52.4864 96.9166 53.1781 93.7293 55.6752 93.3161" stroke="#263238" stroke-miterlimit="10" stroke-linecap="round" stroke-linejoin="round"/>
<path d="M60.6693 91.9248C60.6693 91.9248 62.0528 89.294 64.2715 90.3986" stroke="#263238" stroke-miterlimit="10" stroke-linecap="round" stroke-linejoin="round"/>
<path d="M40.2879 95.0868C40.2879 95.0868 55.8102 95.0868 57.0081 92.4644C58.206 89.8421 54.6207 87.928 54.6207 87.928C54.6207 87.928 68.0003 88.4086 69.4344 84.3443C70.8685 80.2885 64.6596 78.6105 62.7446 78.6105C60.8296 78.6105 59.8764 78.6105 59.8764 78.6105C59.8764 78.6105 59.1593 72.6406 52.2333 74.074C45.3073 75.5075 31.9278 84.5804 30.2575 89.8336C28.5871 95.0868 24.7656 96.7564 27.6339 102.962C30.5021 109.168 38.3814 114.186 38.3814 114.186C38.3814 114.186 37.1834 109.649 39.5793 109.413C41.9667 109.177 46.0328 110.846 46.7415 110.846C47.4585 110.846 49.6097 108.932 48.4118 107.743C47.2139 106.546 46.0244 105.829 45.7882 105.121C45.552 104.404 46.9861 102.018 46.0244 99.8678C45.0711 97.7092 40.2879 95.0868 40.2879 95.0868Z" fill="#263238" stroke="#263238" stroke-miterlimit="10" stroke-linecap="round" stroke-linejoin="round"/>
<path d="M53.5662 123.41L48.0322 127.087C47.1379 127.685 45.9232 127.441 45.3326 126.547L34.4249 110.147C33.8259 109.253 34.0705 108.039 34.9732 107.448L40.5072 103.772C41.4014 103.173 42.6162 103.418 43.2068 104.312L54.1145 120.712C54.7051 121.606 54.4689 122.812 53.5662 123.41Z" fill="#00AEFF" stroke="#263238" stroke-miterlimit="10"/>
<path d="M37.4281 123.756C37.4281 123.756 36.323 120.923 35.2263 118.882C34.1212 116.842 34.1212 115.897 34.9141 115.897C35.6987 115.897 37.7487 116.842 38.3729 119.203C39.0056 121.564 38.6851 124.397 38.6851 124.397L37.4281 123.756Z" fill="white" stroke="#263238" stroke-miterlimit="10"/>
<path d="M46.868 134.608C46.868 134.608 37.9005 125.645 37.5884 124.861C37.3184 124.186 37.6306 113.865 37.7233 110.981C37.7402 110.543 38.0523 110.18 38.4826 110.104C39.0141 110.003 39.5202 110.391 39.5624 110.931L40.2626 119.203L42.3125 108.772C42.3969 108.342 42.7765 108.03 43.2152 108.03C43.7467 108.03 44.1685 108.469 44.1347 109L43.5526 120.611L46.1425 110.703C46.2775 110.189 46.8089 109.877 47.3235 110.02C47.7791 110.147 48.0744 110.585 48.0237 111.049L46.8511 121.715L49.0529 123.604V119.827L51.685 115.391C51.8874 115.054 52.3092 114.928 52.6551 115.105C53.0094 115.282 53.1613 115.712 53.001 116.074L51.2463 119.987C51.2463 119.987 54.7051 134.144 54.8654 134.616C55.0256 135.089 54.2327 137.601 53.7602 138.546C53.2878 139.49 32.2062 184.155 30.9408 185.884C29.6838 187.612 21.1887 190.285 17.4094 186.196C13.63 182.106 14.8955 178.017 16.937 173.303C19.0122 168.581 46.868 134.608 46.868 134.608Z" fill="white" stroke="#263238" stroke-miterlimit="10"/>
<path d="M50.0146 230.296L61.9516 237.201" stroke="#808080" stroke-miterlimit="10" stroke-linecap="round" stroke-linejoin="round"/>
<path d="M98.3952 225.582L91.174 235.001" stroke="#808080" stroke-miterlimit="10" stroke-linecap="round" stroke-linejoin="round"/>
<path d="M2.90785 379.999H379.998" stroke="#263238" stroke-miterlimit="10" stroke-linecap="round" stroke-linejoin="round"/>
</svg>
