<svg width="21" height="16" viewBox="0 0 21 16" fill="none" xmlns="http://www.w3.org/2000/svg">
<path d="M10.0222 9.18862L12.042 7.24745C12.042 7.24745 12.042 7.24706 12.0424 7.24706C12.0428 7.24706 12.0428 7.24706 12.0428 7.24706L19.1126 0.177256C18.8819 0.0672079 18.6268 0 18.3544 0H1.76862C1.49625 0 1.24157 0.0668149 1.01086 0.177256L10.0222 9.18862Z" fill="#00AEFF"/>
<path d="M19.9459 14.3173C20.0563 14.0866 20.1231 13.8319 20.1231 13.5595V1.76866C20.1231 1.49668 20.0563 1.24161 19.9462 1.01129L13.2927 7.66409L19.9459 14.3173Z" fill="#00AEFF"/>
<path d="M0.177256 1.01086C0.0668149 1.24157 0 1.49625 0 1.76862V13.5595C0 13.8315 0.0668149 14.0865 0.177256 14.3169L6.83045 7.66406L0.177256 1.01086Z" fill="#00AEFF"/>
<path d="M12.459 8.49765L10.4388 10.4388C10.3236 10.554 10.1727 10.6114 10.0222 10.6114C9.87167 10.6114 9.72035 10.554 9.60558 10.4388L7.66402 8.49725L1.01044 15.1508C1.24114 15.2613 1.49622 15.3281 1.76859 15.3281H18.3544C18.6268 15.3281 18.8815 15.2613 19.1122 15.1508L12.459 8.49765Z" fill="#00AEFF"/>
</svg>
