<svg width="14" height="21" viewBox="0 0 14 21" fill="none" xmlns="http://www.w3.org/2000/svg">
<path d="M10.2307 3.50014H13.4614C13.7587 3.50014 14 3.30409 14 3.06252V0.43762C14 0.196047 13.7587 0 13.4614 0H10.2307C6.96063 0.00328112 4.31095 2.15611 4.30742 4.81259V7.8751H0.538617C0.241292 7.8751 0 8.07115 0 8.31272V10.9376C0 11.1792 0.241292 11.3752 0.538617 11.3752H4.30793V20.5624C4.30793 20.804 4.54922 21 4.84654 21H8.07723C8.37456 21 8.61585 20.804 8.61585 20.5624V11.3752H12.3852C12.6169 11.3752 12.8223 11.2547 12.8955 11.0758L13.9722 8.45094C14.0661 8.22167 13.9137 7.97395 13.6315 7.89766C13.577 7.8829 13.5194 7.8751 13.4619 7.8751H8.61585V4.81259C8.61535 4.08787 9.33821 3.50014 10.2307 3.50014Z" fill="#00AEFF"/>
</svg>
