<?xml version="1.0" encoding="UTF-8"?>
<svg xmlns="http://www.w3.org/2000/svg" xmlns:xlink="http://www.w3.org/1999/xlink" width="24pt" height="24pt" viewBox="0 0 24 24" version="1.1">
<g id="surface12453885">
<path style=" stroke:none;fill-rule:nonzero;fill:rgb(0%,68.235294%,100%);fill-opacity:1;" d="M 2.398438 5.601562 C 2.113281 5.597656 1.84375 5.746094 1.699219 5.996094 C 1.550781 6.246094 1.550781 6.554688 1.699219 6.804688 C 1.84375 7.050781 2.113281 7.203125 2.398438 7.199219 L 21.601562 7.199219 C 21.886719 7.203125 22.15625 7.050781 22.300781 6.804688 C 22.449219 6.554688 22.449219 6.246094 22.300781 5.996094 C 22.15625 5.746094 21.886719 5.597656 21.601562 5.601562 Z M 2.398438 11.199219 C 2.113281 11.195312 1.84375 11.347656 1.699219 11.597656 C 1.550781 11.847656 1.550781 12.152344 1.699219 12.402344 C 1.84375 12.652344 2.113281 12.804688 2.398438 12.800781 L 21.601562 12.800781 C 21.886719 12.804688 22.15625 12.652344 22.300781 12.402344 C 22.449219 12.152344 22.449219 11.847656 22.300781 11.597656 C 22.15625 11.347656 21.886719 11.195312 21.601562 11.199219 Z M 2.398438 16.800781 C 2.113281 16.796875 1.84375 16.949219 1.699219 17.195312 C 1.550781 17.445312 1.550781 17.753906 1.699219 18.003906 C 1.84375 18.253906 2.113281 18.402344 2.398438 18.398438 L 21.601562 18.398438 C 21.886719 18.402344 22.15625 18.253906 22.300781 18.003906 C 22.449219 17.753906 22.449219 17.445312 22.300781 17.195312 C 22.15625 16.949219 21.886719 16.796875 21.601562 16.800781 Z M 2.398438 16.800781 "/>
</g>
</svg>
