<svg width="185" height="105" viewBox="0 0 185 105" fill="none" xmlns="http://www.w3.org/2000/svg">
<path d="M24.7207 101.56C24.7207 101.56 -13.8405 32.1091 15.0246 15.9022C38.0534 2.97343 58.2547 25.5987 82.9015 9.84095C114.697 -10.4882 138.802 3.1213 156.03 28.4264C168.958 47.4163 175.806 59.7006 182.292 74.4874C192.393 97.5173 170.98 102.771 170.98 102.771L24.7207 101.56Z" fill="#E7F3FE"/>
<path d="M131.268 102.013L113.687 102.045C113.436 102.045 113.227 101.79 113.213 101.479C113.199 101.167 113.385 100.893 113.634 100.871L131.145 99.2987C132.566 99.1704 133.861 99.7214 133.898 100.533C133.935 101.344 132.695 102.011 131.268 102.013Z" fill="#75A1DE"/>
<path d="M108.505 99.5233C109.111 99.3712 110.223 96.0553 110.223 96.0553C110.223 96.0553 97.5274 91.7741 92.143 88.9841L84.6411 97.6609C94.2758 100.063 108.056 99.6362 108.505 99.5233Z" fill="#F09959"/>
<path d="M106.553 94.7427C109.677 95.5504 114.647 93.5304 115.577 93.7327C116.506 93.935 120.389 95.9549 121.318 96.9649C122.247 97.9749 125.54 101.107 124.949 101.309C124.358 101.511 120.22 98.4812 119.714 98.3794C119.208 98.279 118.954 98.9848 114.816 99.7939C110.679 100.602 105.677 98.5147 105.677 98.5147L106.553 94.7427Z" fill="#F09959"/>
<path d="M111.523 97.8745C111.523 97.8745 116.335 96.6623 116.927 96.8646C117.518 97.0668 121.106 97.8745 123.597 100.704C121.233 99.9963 117.856 99.794 116.927 99.794C115.999 99.7926 111.523 97.8745 111.523 97.8745Z" fill="#E38540"/>
<path d="M112.673 95.853C114.729 98.4798 119.946 99.2875 120.737 100.197C121.528 101.107 118.836 100.72 117.417 100.602C113.803 100.299 111.28 101.764 108.354 100.854C105.429 99.9445 104.768 97.7739 104.768 97.7739L112.673 95.853Z" fill="#F09959"/>
<path d="M74.1525 49.2326C64.8818 53.7886 60.6398 57.1213 57.7607 69.545C54.8816 81.9688 54.731 93.7871 56.2458 102.574C66.5362 102.873 96.0304 103.984 96.0304 103.984C96.0304 103.984 95.4683 85.9431 92.4552 71.6668C89.5761 58.0308 85.4862 52.7284 82.0017 50.304C78.5172 47.8795 74.1525 49.2326 74.1525 49.2326Z" fill="#A2DFF2"/>
<path d="M76.3955 91.5146C73.0728 88.182 73.9711 65.6069 68.517 55.4556L58.3662 74.394L55.2973 90.1517C55.2708 94.7036 55.6126 98.9039 56.2445 102.574C56.2807 102.782 56.4719 102.923 56.6783 102.905C65.0576 102.171 65.5249 98.5286 92.2906 94.4888C92.9253 94.3939 78.6581 93.7815 76.3955 91.5146Z" fill="#96CFE0"/>
<path d="M73.2713 49.2368C72.0968 51.978 74.4835 55.5673 78.254 58.3949C82.0245 61.2239 84.3149 59.6741 84.1127 57.4519C83.9104 55.2297 83.7081 52.8721 82.8335 51.459C81.9575 50.0445 74.955 48.8323 74.955 48.8323C74.955 48.8323 73.4736 48.7653 73.2713 49.2368Z" fill="white"/>
<path d="M77.7486 35.499L74.1525 49.2326C73.7996 50.1519 73.8958 51.1828 74.4147 52.0198C75.8794 54.3843 79.0291 58.9292 81.2833 58.3279C84.3131 57.5202 82.2932 51.8636 82.2932 51.8636L86.3329 37.6193L77.7486 35.499Z" fill="#F09959"/>
<path d="M83.2572 36.3471L79.6681 34.8935L78.5898 37.6974C79.085 49.6343 80.6055 54.507 82.9392 55.8643C83.0648 54.023 82.2934 51.8635 82.2934 51.8635L85.2227 41.256L83.2572 36.3471Z" fill="#E38540"/>
<path d="M93.228 41.7276C92.5278 46.4677 90.66 50.5299 87.2745 50.0305C83.889 49.5297 78.075 45.5624 78.7752 40.8222C79.4755 36.0821 87.0764 30.4045 90.4619 30.9053C93.8474 31.4047 93.9269 36.9874 93.228 41.7276Z" fill="#F09959"/>
<path d="M67.4584 59.5458C67.7291 58.4688 63.416 57.8257 62.7297 58.6976C55.9462 67.3256 45.3936 90.6344 47.7621 94.8473C50.4892 99.6963 79.8691 93.3282 80.4758 93.1775C81.0812 93.0255 79.4157 88.4806 79.4157 88.4806C79.4157 88.4806 62.9515 88.7833 60.1742 86.9154C68.8087 70.7029 65.4121 67.7036 67.4584 59.5458Z" fill="#F09959"/>
<path d="M65.7914 54.6967C58.6647 57.8913 50.9438 78.6347 50.9438 78.6347C50.9438 78.6347 52.7614 79.0895 58.6703 81.0592C61.1268 81.8781 63.5065 82.6369 63.5065 82.6369C63.5065 82.6369 69.1629 75.2965 70.9414 69.5436C73.2333 62.1348 70.1854 52.7284 65.7914 54.6967Z" fill="#A2DFF2"/>
<path d="M51.7085 76.6887C58.3734 77.548 62.3559 79.8693 64.38 81.454C64.6841 81.0313 65.0523 80.5082 65.4596 79.9111C64.0577 78.5971 61.007 76.2549 56.5712 75.6341C54.7703 75.383 53.3991 75.2198 52.3571 75.1152C52.1116 75.6997 51.894 76.2284 51.7085 76.6887Z" fill="white"/>
<path d="M53.2373 73.0771C53.1229 73.3366 53.0127 73.5891 52.9053 73.8346C58.7598 73.6002 64.3771 76.453 65.7958 78.1939C65.9618 78.3976 66.1096 78.5775 66.2393 78.7393C66.3858 78.5147 66.5351 78.2832 66.6871 78.0446C65.726 77.0988 64.02 75.5797 62.2945 74.8264C58.7598 73.2836 53.6934 73.091 53.2373 73.0771Z" fill="white"/>
<path d="M92.4959 94.4233H85.0205L83.9102 80.4664H93.7081L92.4959 94.4233Z" fill="#75A1DE"/>
<path d="M78.5063 88.5307C80.5764 88.4805 83.9605 86.1062 85.1224 85.4492C86.2844 84.7922 92.8489 83.3791 93.153 84.0863C93.4557 84.7936 87.6486 86.2583 87.6486 86.2583L91.9924 86.4606C91.9924 86.4606 93.2548 88.3801 93.3567 89.6425C93.4571 90.905 92.9521 92.7241 92.9521 92.7241L91.0327 91.0068C91.0327 91.0068 89.4676 91.8648 87.498 93.0268C85.5284 94.1888 81.9936 93.4815 80.4787 93.1788C78.9639 92.8761 75.4277 91.7643 75.4277 91.7643L78.5063 88.5307Z" fill="#F09959"/>
<path d="M51.436 87.8737C51.436 87.8737 54.7866 85.9375 58.1526 86.409C60.0818 86.6796 60.291 86.9935 60.1724 86.9139C60.5895 86.1314 60.9773 85.3795 61.34 84.6569C59.588 84.7378 55.0907 85.2121 51.436 87.8737Z" fill="#E38540"/>
<path d="M157.181 64.0864V98.4812C157.181 99.6251 156.103 100.551 154.773 100.551H147.552C146.32 100.551 145.321 101.411 145.321 102.471H155.713C157.951 102.471 159.764 100.911 159.764 98.9862V64.0864H157.181Z" fill="#6791C9"/>
<path d="M151.9 93.5415L150.753 93.3225C149.997 93.1788 149.515 92.5274 149.682 91.8773L158.668 56.965C158.836 56.3135 159.592 55.8992 160.349 56.0429L161.496 56.2619C162.252 56.4056 162.734 57.057 162.567 57.7071L153.581 92.6194C153.412 93.2709 152.656 93.6852 151.9 93.5415Z" fill="#95BEF5"/>
<path d="M152.212 93.6016L152.077 93.5765C151.493 93.4649 151.12 92.9627 151.25 92.4605L160.375 57.0097C160.505 56.5075 161.088 56.1866 161.673 56.2982L161.808 56.3233C162.393 56.4349 162.765 56.9371 162.635 57.4393L153.51 92.8901C153.381 93.3923 152.797 93.7132 152.212 93.6016Z" fill="#75A1DE"/>
<path d="M176.136 104.463H21.7716C21.0574 104.463 20.4785 103.884 20.4785 103.17C20.4785 102.456 21.0574 101.877 21.7716 101.877H176.136C176.851 101.877 177.43 102.456 177.43 103.17C177.43 103.884 176.851 104.463 176.136 104.463Z" fill="#2E5B9A"/>
<path d="M79.3054 29.5758C72.3113 33.9142 76.7374 38.607 74.8779 46.6644C76.0204 47.055 77.2688 44.8049 78.0653 43.0346C78.8618 41.263 79.5705 38.6962 79.8355 38.7841C80.1005 38.872 80.5441 42.8575 80.5441 42.8575L81.607 43.389C81.607 43.389 83.1122 40.7329 83.0243 40.1135C82.9364 39.4942 81.6963 36.4838 83.2014 35.0665C84.1681 34.1569 88.159 36.1295 88.159 36.1295L84.263 30.5509L79.3054 29.5758Z" fill="#F09959"/>
<path opacity="0.5" d="M79.3054 29.5758C72.3113 33.9142 76.7374 38.607 74.8779 46.6644C76.0204 47.055 77.2688 44.8049 78.0653 43.0346C78.8618 41.263 79.5705 38.6962 79.8355 38.7841C80.1005 38.872 80.5441 42.8575 80.5441 42.8575L81.607 43.389C81.607 43.389 83.1122 40.7329 83.0243 40.1135C82.9364 39.4942 81.6963 36.4838 83.2014 35.0665C84.1681 34.1569 88.159 36.1295 88.159 36.1295L84.263 30.5509L79.3054 29.5758Z" fill="#2E5B9A"/>
<path d="M94.6216 34.2686C94.2673 38.5191 87.6791 37.1883 84.6173 33.3828C81.6949 29.753 79.2915 32.2542 76.383 33.4706C71.5134 35.5073 77.0024 23.7309 86.831 25.5904C94.2046 26.9868 94.8574 31.4395 94.6216 34.2686Z" fill="#2E5B9A"/>
<path d="M79.9795 38.7828C80.2822 40.3675 79.6894 41.8127 78.6571 42.0094C77.6249 42.2061 76.5424 41.0804 76.2397 39.4956C75.937 37.9109 76.5299 36.4657 77.5621 36.269C78.5958 36.0723 79.6782 37.1967 79.9795 38.7828Z" fill="#F09959"/>
<path d="M154.469 48.1808H120.282C119.892 48.1808 119.575 47.8641 119.575 47.4735V27.6772C119.575 27.2866 119.892 26.97 120.282 26.97H154.471C154.861 26.97 155.178 27.2866 155.178 27.6772V47.4735C155.176 47.8641 154.86 48.1808 154.469 48.1808Z" fill="#9EC8FF"/>
<path d="M153.469 47.5307H121.282C120.941 47.5307 120.665 47.2545 120.665 46.9141V30.9973C120.665 30.6569 120.941 30.3807 121.282 30.3807H153.469C153.81 30.3807 154.086 30.6569 154.086 30.9973V46.9141C154.086 47.2545 153.81 47.5307 153.469 47.5307Z" fill="white"/>
<path d="M122.085 29.3625H121.333C121.174 29.3625 121.046 29.2342 121.046 29.0751V28.4558C121.046 28.2967 121.174 28.1684 121.333 28.1684H122.085C122.244 28.1684 122.372 28.2967 122.372 28.4558V29.0751C122.372 29.2328 122.244 29.3625 122.085 29.3625Z" fill="white"/>
<path d="M124.498 29.3625H123.746C123.587 29.3625 123.459 29.2342 123.459 29.0751V28.4558C123.459 28.2967 123.587 28.1684 123.746 28.1684H124.498C124.657 28.1684 124.786 28.2967 124.786 28.4558V29.0751C124.786 29.2328 124.657 29.3625 124.498 29.3625Z" fill="white"/>
<path d="M126.911 29.3625H126.159C126 29.3625 125.872 29.2342 125.872 29.0751V28.4558C125.872 28.2967 126 28.1684 126.159 28.1684H126.911C127.07 28.1684 127.199 28.2967 127.199 28.4558V29.0751C127.199 29.2328 127.069 29.3625 126.911 29.3625Z" fill="white"/>
<path d="M152.953 46.5208H121.799V31.3922H152.953V46.5208ZM121.91 46.4078H152.841V31.5038H121.91V46.4078Z" fill="#9EC8FF"/>
<path d="M152.898 43.4058H121.855V43.5174H152.898V43.4058Z" fill="#9EC8FF"/>
<path d="M152.898 40.401H121.855V40.5126H152.898V40.401Z" fill="#9EC8FF"/>
<path d="M152.898 37.3976H121.855V37.5092H152.898V37.3976Z" fill="#9EC8FF"/>
<path d="M152.898 34.3955H121.855V34.5071H152.898V34.3955Z" fill="#9EC8FF"/>
<path d="M148.519 31.4479H148.407V46.465H148.519V31.4479Z" fill="#9EC8FF"/>
<path d="M144.084 31.4479H143.972V46.465H144.084V31.4479Z" fill="#9EC8FF"/>
<path d="M139.648 31.4479H139.537V46.465H139.648V31.4479Z" fill="#9EC8FF"/>
<path d="M135.214 31.4479H135.103V46.465H135.214V31.4479Z" fill="#9EC8FF"/>
<path d="M130.779 31.4479H130.667V46.465H130.779V31.4479Z" fill="#9EC8FF"/>
<path d="M126.345 31.4479H126.233V46.465H126.345V31.4479Z" fill="#9EC8FF"/>
<path d="M151.736 33.3437H150.692C150.295 33.3437 149.968 33.0187 149.968 32.6198C149.968 32.2222 150.295 31.8958 150.692 31.8958H151.736C152.133 31.8958 152.46 32.2222 152.46 32.6198C152.46 33.0187 152.135 33.3437 151.736 33.3437Z" fill="#F39892"/>
<path d="M152.115 39.4049H150.314C150.124 39.4049 149.969 39.2501 149.969 39.0604V38.3029C149.969 38.1132 150.124 37.9583 150.314 37.9583H152.115C152.304 37.9583 152.459 38.1132 152.459 38.3029V39.0604C152.459 39.2487 152.304 39.4049 152.115 39.4049Z" fill="#F39892"/>
<path d="M129.679 37.0139H127.23C126.959 37.0139 126.737 36.7921 126.737 36.5215V35.3679C126.737 35.0972 126.959 34.8754 127.23 34.8754H129.679C129.95 34.8754 130.172 35.0972 130.172 35.3679V36.5215C130.172 36.7921 129.95 37.0139 129.679 37.0139Z" fill="#9EC8FF"/>
<path d="M129.333 36.7126H127.574C127.38 36.7126 127.22 36.5536 127.22 36.3583V35.5297C127.22 35.3358 127.379 35.1754 127.574 35.1754H129.333C129.527 35.1754 129.687 35.3344 129.687 35.5297V36.3583C129.687 36.5536 129.528 36.7126 129.333 36.7126Z" fill="white"/>
<path d="M147.456 46.0033H145.006C144.735 46.0033 144.514 45.7815 144.514 45.5108V44.3572C144.514 44.0865 144.735 43.8647 145.006 43.8647H147.456C147.726 43.8647 147.948 44.0865 147.948 44.3572V45.5108C147.948 45.7829 147.726 46.0033 147.456 46.0033Z" fill="#9EC8FF"/>
<path d="M147.111 45.7019H145.351C145.157 45.7019 144.997 45.5429 144.997 45.3476V44.519C144.997 44.3251 145.156 44.1647 145.351 44.1647H147.11C147.304 44.1647 147.464 44.3237 147.464 44.519V45.3476C147.464 45.5429 147.305 45.7019 147.111 45.7019Z" fill="white"/>
<path d="M138.857 35.499H136.938C136.808 35.499 136.702 35.393 136.702 35.2632C136.702 35.1335 136.808 35.0275 136.938 35.0275H138.857C138.987 35.0275 139.093 35.1335 139.093 35.2632C139.093 35.393 138.987 35.499 138.857 35.499Z" fill="#9EC8FF"/>
<path d="M138.857 36.2398H136.938C136.808 36.2398 136.702 36.1337 136.702 36.004C136.702 35.8743 136.808 35.7682 136.938 35.7682H138.857C138.987 35.7682 139.093 35.8743 139.093 36.004C139.093 36.1337 138.987 36.2398 138.857 36.2398Z" fill="#9EC8FF"/>
<path d="M134.616 44.4381H132.696C132.566 44.4381 132.46 44.332 132.46 44.2023C132.46 44.0726 132.566 43.9666 132.696 43.9666H134.616C134.745 43.9666 134.851 44.0726 134.851 44.2023C134.851 44.332 134.745 44.4381 134.616 44.4381Z" fill="#9EC8FF"/>
<path d="M134.616 45.1788H132.696C132.566 45.1788 132.46 45.0728 132.46 44.9431C132.46 44.8134 132.566 44.7073 132.696 44.7073H134.616C134.745 44.7073 134.851 44.8134 134.851 44.9431C134.851 45.0728 134.745 45.1788 134.616 45.1788Z" fill="#9EC8FF"/>
<path d="M124.665 38.8317H122.746C122.616 38.8317 122.51 38.7257 122.51 38.5959C122.51 38.4662 122.616 38.3602 122.746 38.3602H124.665C124.795 38.3602 124.901 38.4662 124.901 38.5959C124.901 38.7257 124.795 38.8317 124.665 38.8317Z" fill="#9EC8FF"/>
<path d="M124.665 39.5723H122.746C122.616 39.5723 122.51 39.4663 122.51 39.3366C122.51 39.2068 122.616 39.1008 122.746 39.1008H124.665C124.795 39.1008 124.901 39.2068 124.901 39.3366C124.901 39.4663 124.795 39.5723 124.665 39.5723Z" fill="#9EC8FF"/>
<path d="M143.201 35.499H141.282C141.152 35.499 141.046 35.393 141.046 35.2632C141.046 35.1335 141.152 35.0275 141.282 35.0275H143.201C143.331 35.0275 143.437 35.1335 143.437 35.2632C143.437 35.393 143.331 35.499 143.201 35.499Z" fill="#9EC8FF"/>
<path d="M143.201 36.2398H141.282C141.152 36.2398 141.046 36.1337 141.046 36.004C141.046 35.8743 141.152 35.7682 141.282 35.7682H143.201C143.331 35.7682 143.437 35.8743 143.437 36.004C143.437 36.1337 143.331 36.2398 143.201 36.2398Z" fill="#9EC8FF"/>
<path d="M129.976 43.124H127.133C126.888 43.124 126.686 42.9231 126.686 42.6762V41.3998C126.686 41.1543 126.886 40.952 127.133 40.952H129.976C130.222 40.952 130.424 41.1529 130.424 41.3998V42.6762C130.424 42.9231 130.222 43.124 129.976 43.124Z" fill="#9CD499"/>
<path d="M128.354 42.7669C128.351 42.7669 128.348 42.7669 128.345 42.7669C128.284 42.7641 128.227 42.7376 128.186 42.6916L127.655 42.0875C127.574 41.9955 127.582 41.8546 127.674 41.7723C127.766 41.6914 127.907 41.6997 127.989 41.7918L128.366 42.2201L129.334 41.2729C129.422 41.1864 129.563 41.1878 129.649 41.2757C129.736 41.3635 129.734 41.5044 129.647 41.5909L128.511 42.7027C128.468 42.7432 128.412 42.7669 128.354 42.7669Z" fill="white"/>
<path d="M143.258 33.9827H140.416C140.17 33.9827 139.968 33.7818 139.968 33.5349V32.2585C139.968 32.0129 140.169 31.8107 140.416 31.8107H143.258C143.504 31.8107 143.706 32.0115 143.706 32.2585V33.5349C143.706 33.7818 143.504 33.9827 143.258 33.9827Z" fill="#9CD499"/>
<path d="M141.636 33.6255C141.633 33.6255 141.631 33.6255 141.628 33.6255C141.566 33.6227 141.509 33.5962 141.469 33.5502L140.937 32.9462C140.856 32.8541 140.865 32.7132 140.957 32.6309C141.049 32.55 141.19 32.5584 141.272 32.6504L141.649 33.0787L142.617 32.1315C142.705 32.045 142.846 32.0464 142.932 32.1343C143.019 32.2222 143.017 32.3631 142.929 32.4496L141.794 33.5614C141.751 33.6018 141.695 33.6255 141.636 33.6255Z" fill="white"/>
<path d="M142.746 41.9633C142.746 42.5213 142.294 42.9733 141.737 42.9733C141.179 42.9733 140.727 42.5213 140.727 41.9633C140.727 41.4053 141.179 40.9534 141.737 40.9534C142.294 40.9534 142.746 41.4053 142.746 41.9633Z" fill="#9EC8FF"/>
<path d="M129.666 45.0449C129.666 45.6029 129.214 46.0549 128.656 46.0549C128.098 46.0549 127.646 45.6029 127.646 45.0449C127.646 44.4869 128.098 44.0349 128.656 44.0349C129.213 44.0335 129.666 44.4869 129.666 45.0449Z" fill="#9EC8FF"/>
<path d="M135.524 57.3026H114.904C114.71 57.3026 114.554 57.1464 114.554 56.9525V45.4606C114.554 45.2667 114.71 45.1104 114.904 45.1104H135.524C135.717 45.1104 135.874 45.2667 135.874 45.4606V56.9525C135.874 57.145 135.716 57.3026 135.524 57.3026Z" fill="#9EC8FF"/>
<path d="M135.079 56.7655H115.349C115.169 56.7655 115.022 56.619 115.022 56.4391V45.9753C115.022 45.7953 115.169 45.6489 115.349 45.6489H135.079C135.259 45.6489 135.405 45.7953 135.405 45.9753V56.4391C135.405 56.619 135.259 56.7655 135.079 56.7655Z" fill="white"/>
<path d="M134.475 56.0833H115.953C115.749 56.0833 115.586 55.9187 115.586 55.7165V46.6965C115.586 46.4942 115.751 46.3296 115.953 46.3296H134.476C134.68 46.3296 134.843 46.4942 134.843 46.6965V55.7165C134.843 55.9187 134.678 56.0833 134.475 56.0833Z" fill="#9EC8FF"/>
<path d="M125.214 54.5907C127.083 54.5907 128.598 53.0755 128.598 51.2064C128.598 49.3374 127.083 47.8222 125.214 47.8222C123.345 47.8222 121.83 49.3374 121.83 51.2064C121.83 53.0755 123.345 54.5907 125.214 54.5907Z" fill="white"/>
<path d="M128.128 51.2065C128.128 52.8163 126.824 54.1206 125.214 54.1206C123.604 54.1206 122.3 52.8163 122.3 51.2065C122.3 49.5967 123.604 48.2924 125.214 48.2924C126.824 48.2924 128.128 49.5967 128.128 51.2065Z" fill="#9EC8FF"/>
<path d="M126.65 51.0503L125.585 51.6655L124.519 52.2806V51.0503V49.8213L125.585 50.4365L126.65 51.0503Z" fill="white"/>
<path d="M113.202 15.9021H99.8691C99.5357 15.9021 99.2637 15.6301 99.2637 15.2967C99.2637 14.9633 99.5371 14.6913 99.8691 14.6913H113.202C113.535 14.6913 113.807 14.9633 113.807 15.2967C113.807 15.6301 113.535 15.9021 113.202 15.9021Z" fill="#9EC8FF"/>
<path d="M148.048 67.1149H134.716C134.382 67.1149 134.11 66.8415 134.11 66.5081C134.11 66.1747 134.384 65.9026 134.716 65.9026H148.048C148.382 65.9026 148.654 66.1761 148.654 66.5081C148.655 66.8415 148.382 67.1149 148.048 67.1149Z" fill="#9EC8FF"/>
<path d="M148.048 69.3371H134.716C134.382 69.3371 134.11 69.0651 134.11 68.7317C134.11 68.3983 134.384 68.1263 134.716 68.1263H148.048C148.382 68.1263 148.654 68.3997 148.654 68.7317C148.655 69.0651 148.382 69.3371 148.048 69.3371Z" fill="#9EC8FF"/>
<path d="M148.048 71.7617H134.716C134.382 71.7617 134.11 71.4883 134.11 71.1563C134.11 70.8229 134.384 70.5494 134.716 70.5494H148.048C148.382 70.5494 148.654 70.8229 148.654 71.1563C148.655 71.4883 148.382 71.7617 148.048 71.7617Z" fill="#9EC8FF"/>
<path d="M121.787 18.2262H99.8691C99.5357 18.2262 99.2637 17.9528 99.2637 17.6208C99.2637 17.2874 99.5371 17.0154 99.8691 17.0154H121.787C122.121 17.0154 122.393 17.2888 122.393 17.6208C122.393 17.9528 122.121 18.2262 121.787 18.2262Z" fill="#9EC8FF"/>
<path d="M27.1578 51.8176C23.6733 54.9995 25.1881 58.1815 27.7632 64.0893C30.3382 69.9984 30.7929 91.8146 30.7929 91.8146L28.674 91.5119C28.674 91.5119 28.9767 69.0889 26.099 63.0277C23.2199 56.9679 22.0091 53.9366 19.4327 55.9063C16.8563 57.8774 27.1578 51.8176 27.1578 51.8176Z" fill="#74B570"/>
<path d="M29.0729 47.6981C28.6502 45.8121 26.1366 43.7726 22.7762 42.0414C23.2756 44.823 24.8784 49.3693 23.2198 50.3026C20.9837 51.5608 23.0022 45.2122 22.1387 41.722C18.9834 40.1805 15.1878 38.9209 11.6908 38.2945C11.6963 38.3071 11.6991 38.3196 11.7047 38.3322C13.6743 43.3318 16.2494 45.3015 15.1892 46.059C14.3913 46.6282 11.7926 40.8529 8.36109 37.8928C5.78467 37.756 3.6058 38.1048 2.31689 39.1259C0.324944 40.7037 -1.01279 42.1028 0.991716 46.9072C2.13695 47.7246 3.61975 48.3119 5.34248 48.4835C9.88713 48.9383 12.0088 49.0889 8.82699 50.6053C7.26886 51.3474 4.65757 50.5634 2.54008 50.0863C3.22638 51.3516 4.0717 52.7842 5.09697 54.4164C5.747 55.4515 6.46539 56.3498 7.22702 57.1268C8.69169 57.4072 9.96943 57.4114 10.6446 57.1213C12.7663 56.2117 18.219 53.3339 19.5832 54.5461C20.9182 55.7318 9.48261 56.4837 10.2749 59.4983C15.8183 62.6914 22.1611 61.1723 23.2812 58.24C24.7863 54.2992 30.3465 53.3729 29.0729 47.6981Z" fill="#9CD499"/>
<path d="M17.6133 69.2409C23.6728 64.6961 29.8844 68.9382 33.0662 73.7858C36.248 78.6348 33.9757 89.5422 33.9757 89.5422C33.9757 89.5422 32.7635 89.5422 32.7635 89.0874C32.7635 88.6326 36.096 76.2089 28.2189 70.6038C23.2906 67.0968 19.735 68.7862 19.2802 70.4518C18.8255 72.1188 21.2498 75.1487 21.2498 75.1487L17.6133 69.2409Z" fill="#74B570"/>
<path d="M31.5517 59.8973C25.4922 59.8973 23.5225 69.2911 25.1881 74.7455C26.855 80.1999 29.1273 90.3512 29.1273 90.3512L30.6422 88.8363C30.6422 88.8363 24.8854 74.5949 26.2482 68.2309C27.611 61.867 30.9449 60.8068 31.5503 60.8068C32.1585 60.8068 31.5517 59.8973 31.5517 59.8973Z" fill="#9CD499"/>
<path d="M26.4683 74.7874C26.0415 74.2224 25.5156 73.7565 24.8726 73.4468C24.9563 73.8988 25.0609 74.3327 25.1878 74.7456C25.9466 77.2314 26.8324 80.691 27.5703 83.7209C27.6373 83.3331 27.7405 82.7347 27.9009 81.8126C27.9386 81.595 27.9679 81.3578 27.9888 81.1081C27.396 79.0882 26.8352 76.8897 26.4683 74.7874Z" fill="#74B570"/>
<path d="M24.8127 74.8335C13.299 69.9845 19.3655 63.3318 9.21465 67.726C8.49905 68.0357 7.62862 68.8155 6.7554 69.8924C7.65931 70.1491 8.75432 70.3332 9.97209 70.1505C13.0019 69.6957 11.9417 72.1202 6.94232 72.7256C5.99935 72.84 5.23494 72.9976 4.59885 73.2194C2.21772 77.7936 1.14363 83.8144 6.18348 85.9069C7.17667 86.3184 8.4042 86.5555 9.77122 86.6434C11.3266 85.4074 9.3918 78.254 11.7897 79.2402C14.0913 80.1888 11.0685 85.3726 11.4828 86.6797C13.7551 86.6378 16.2716 86.2668 18.675 85.6711C19.6263 85.1382 20.3531 84.4226 20.5763 83.4824C21.3337 80.3004 16.3343 78.3307 16.1823 75.6035C16.0428 73.0967 18.0152 81.1193 23.2378 82.2994C27.9624 80.0939 30.1943 77.0989 24.8127 74.8335Z" fill="#9CD499"/>
<path d="M33.0159 66.2612C31.8037 63.686 34.9855 63.0792 34.8335 65.0489C34.6996 66.794 34.6842 71.0362 36.4739 72.1913C39.5609 71.8565 43.761 70.6135 46.9358 68.7163C46.9763 68.4597 46.9372 68.196 46.8019 67.9268C45.4391 65.1996 36.6511 62.9271 39.3781 62.0176C41.55 61.2936 45.3554 65.5665 48.4228 67.7203C50.2655 66.3225 51.4986 64.6569 51.4986 62.7974C51.4986 60.2809 48.4409 57.4309 44.4849 56.0694C42.705 56.2493 41.052 57.2216 38.4686 58.685C34.6535 60.8472 35.5365 57.3514 39.1424 55.277C36.0289 55.4389 32.9238 56.7683 30.6334 59.9475C30.6334 59.9475 30.8496 61.3062 29.4128 63.4084C25.4903 69.1418 30.0168 72.4884 35.4291 72.2722C35.125 70.76 33.8529 68.0398 33.0159 66.2612Z" fill="#9CD499"/>
<path d="M17.9777 68.9843C15.0149 71.2735 11.7243 73.9505 7.68319 75.7695C3.64349 77.5872 4.45115 83.5131 4.45115 83.5131C4.45115 83.5131 3.84576 78.3949 7.2117 76.6442C10.579 74.8935 12.8012 72.8052 15.3594 72.402C17.9177 71.9975 19.3322 71.5943 19.3322 71.5943C19.3322 71.5943 18.5245 69.9775 18.996 69.3721C19.4675 68.7653 17.9777 68.9843 17.9777 68.9843Z" fill="#74B570"/>
<path d="M3.37451 42.0986C14.2158 44.9946 22.1613 51.9305 23.6427 53.6143C25.1241 55.298 25.1241 55.7695 25.1241 55.7695L23.9789 57.9248L23.4405 57.6555C23.4405 57.6555 24.3165 55.8379 22.026 53.4803C18.0784 49.4153 13.2715 46.2069 9.97249 44.7937C6.6749 43.3778 3.37451 42.0986 3.37451 42.0986Z" fill="#74B570"/>
<path d="M33.2995 102.11H29.158C26.2133 102.11 23.8252 99.7214 23.8252 96.7766V87.26H38.6323V96.7766C38.6323 99.7214 36.2456 102.11 33.2995 102.11Z" fill="#F39892"/>
</svg>
