<svg width="181" height="158" viewBox="0 0 181 158" fill="none" xmlns="http://www.w3.org/2000/svg">
<path d="M78.5883 42.5967C77.4505 44.9198 70.7519 44.7641 63.729 42.3285C56.7061 39.8929 51.9383 36.0383 53.0814 33.7196C53.3439 33.1831 54.0802 31.1715 54.8731 30.8903C57.4887 29.9645 62.4675 32.0497 67.8583 33.9186C72.8784 35.6576 78.6141 36.7781 79.5048 39.0666C80.0454 40.4596 78.9127 41.9348 78.5883 42.5967Z" fill="#407BFF"/>
<path opacity="0.2" d="M79.5046 39.0709C79.9319 40.8922 78.9897 41.7661 78.5829 42.5967C78.1607 43.4532 76.9868 43.9724 75.3238 44.1627C75.123 44.1887 74.9119 44.206 74.6956 44.219C73.5783 44.2882 72.286 44.2319 70.8752 44.0502C70.695 44.0329 70.5148 44.0027 70.3295 43.9767C68.9496 43.7777 67.4771 43.4576 65.9582 43.0336C65.7934 42.986 65.6286 42.9384 65.4639 42.8865C64.8872 42.7178 64.3003 42.5318 63.7185 42.3285C63.1366 42.1295 62.5703 41.9132 62.0194 41.6925C61.8597 41.632 61.7053 41.5671 61.5508 41.5022C60.1658 40.9268 58.9095 40.2995 57.8077 39.6593C57.6635 39.5771 57.5245 39.4905 57.3855 39.4127C56.2321 38.7075 55.2642 37.9851 54.5331 37.2713C54.4043 37.1501 54.2911 37.0333 54.1778 36.9122C53.0708 35.7312 52.6332 34.6107 53.0708 33.7152C53.354 33.1355 53.977 31.1671 54.8574 30.886C55.7379 30.6091 56.8757 30.648 58.1938 30.8816C58.3637 30.9119 58.5388 30.9465 58.7139 30.9855C61.314 31.5392 64.532 32.7721 67.8426 33.9185C71.7505 35.2726 76.369 36.6786 78.6293 38.3009C78.7683 38.4004 78.897 38.4999 79.0154 38.6037C79.2111 38.7594 79.3707 38.9109 79.5046 39.0709Z" fill="black"/>
<g opacity="0.2">
<path opacity="0.2" d="M58.9609 30.6266L58.7241 30.99L54.5433 37.2758C54.4145 37.1547 54.3013 37.0379 54.188 36.9167L58.204 30.8862L58.513 30.4189L58.9609 30.6266Z" fill="black"/>
</g>
<g opacity="0.2">
<path opacity="0.2" d="M62.1223 33.1874L57.8128 39.6635C57.6687 39.5813 57.5296 39.4948 57.3906 39.4169L61.6795 32.9711L62.1223 33.1874Z" fill="black"/>
</g>
<g opacity="0.2">
<path opacity="0.2" d="M70.0467 36.9079L65.9689 43.038C65.8041 42.9904 65.6394 42.9428 65.4746 42.8909L69.5988 36.6959L70.0467 36.9079Z" fill="black"/>
</g>
<g opacity="0.2">
<path opacity="0.2" d="M66.3648 35.1776L62.0296 41.697C61.87 41.6364 61.7155 41.5715 61.561 41.5066L65.9117 34.9656L66.3648 35.1776Z" fill="black"/>
</g>
<g opacity="0.2">
<path opacity="0.2" d="M74.8499 38.089L70.8802 44.0503C70.7 44.033 70.5198 44.0028 70.3345 43.9768L74.3968 37.8727L74.8499 38.089Z" fill="black"/>
</g>
<path d="M79.4732 40.5548C78.3354 42.8779 71.7192 42.7871 64.6963 40.3515C57.6734 37.9159 52.9056 34.0613 54.0486 31.7425C55.1865 29.4194 61.8027 29.5103 68.8256 31.9459C75.8485 34.3771 80.6163 38.2317 79.4732 40.5548Z" fill="#407BFF"/>
<path opacity="0.2" d="M77.0896 39.7286C76.2864 41.3682 71.1273 41.1389 65.5718 39.2138C60.0163 37.2887 56.165 34.3988 56.9682 32.7549C57.7714 31.1153 62.9305 31.3446 68.486 33.2697C74.0415 35.1948 77.8928 38.089 77.0896 39.7286Z" fill="white"/>
<path d="M114.074 21.5979C115.902 23.5836 112.411 28.3856 106.407 32.2964C100.404 36.2028 94.0503 37.7602 92.2225 35.7745C91.8003 35.316 90.0909 33.7759 90.1939 33.0621C90.5389 30.6957 95.1676 28.1044 99.7809 25.1021C104.075 22.3074 108.081 18.6822 110.892 19.171C112.591 19.4738 113.549 21.0312 114.074 21.5979Z" fill="#407BFF"/>
<path opacity="0.2" d="M110.892 19.1754C112.987 19.7724 113.42 20.8885 114.074 21.598C114.748 22.3291 114.702 23.4453 114.074 24.7517C114.002 24.9118 113.914 25.0719 113.821 25.2363C113.337 26.0842 112.637 27.0013 111.751 27.9358C111.643 28.0569 111.525 28.1737 111.407 28.2948C110.516 29.199 109.45 30.1161 108.255 31.0116C108.127 31.1068 107.993 31.2063 107.859 31.3015C107.396 31.6346 106.917 31.972 106.412 32.2965C105.918 32.6209 105.413 32.9281 104.914 33.2179C104.77 33.3044 104.626 33.3823 104.487 33.4645C103.205 34.187 101.933 34.7926 100.718 35.2771C100.558 35.342 100.404 35.3983 100.249 35.4588C98.9517 35.9477 97.716 36.2938 96.6244 36.4755C96.4391 36.5101 96.2589 36.536 96.0787 36.5577C94.3075 36.7783 92.9328 36.5404 92.2274 35.7746C91.7691 35.2815 90.0494 33.8495 90.1936 33.0665C90.3429 32.2835 90.9505 31.4745 91.8464 30.6352C91.9648 30.5271 92.0832 30.4146 92.2119 30.3064C94.0758 28.6885 96.9488 26.9537 99.7806 25.1108C103.122 22.9391 106.87 20.2699 109.671 19.4263C109.841 19.3701 110.011 19.3312 110.176 19.2922C110.423 19.2317 110.66 19.197 110.892 19.1754Z" fill="black"/>
<g opacity="0.2">
<path opacity="0.2" d="M91.955 29.9474L92.2073 30.3021L96.6146 36.4755C96.4293 36.5101 96.2491 36.536 96.0689 36.5577L91.8417 30.6309L91.5122 30.1723L91.955 29.9474Z" fill="black"/>
</g>
<g opacity="0.2">
<path opacity="0.2" d="M96.1667 28.9178L100.708 35.2772C100.548 35.3421 100.394 35.3983 100.239 35.4589L95.7188 29.1342L96.1667 28.9178Z" fill="black"/>
</g>
<g opacity="0.2">
<path opacity="0.2" d="M103.951 24.9896L108.25 31.0115C108.122 31.1067 107.988 31.2062 107.854 31.3014L103.508 25.2146L103.951 24.9896Z" fill="black"/>
</g>
<g opacity="0.2">
<path opacity="0.2" d="M100.332 26.8153L104.904 33.2179C104.76 33.3044 104.616 33.3823 104.477 33.4645L99.8892 27.0403L100.332 26.8153Z" fill="black"/>
</g>
<g opacity="0.2">
<path opacity="0.2" d="M107.56 22.0781L111.741 27.94C111.633 28.0611 111.515 28.1779 111.396 28.299L107.118 22.3031L107.56 22.0781Z" fill="black"/>
</g>
<path d="M104.844 30.6055C110.848 26.698 114.233 21.921 112.403 19.9357C110.573 17.9505 104.222 19.5087 98.2169 23.4162C92.2121 27.3237 88.8277 32.1007 90.6576 34.086C92.4875 36.0712 98.8388 34.513 104.844 30.6055Z" fill="#407BFF"/>
<path opacity="0.2" d="M104.104 29.4022C108.857 26.3095 111.661 22.6647 110.367 21.2612C109.073 19.8578 104.172 21.2271 99.4192 24.3197C94.6667 27.4124 91.8627 31.0572 93.1563 32.4606C94.45 33.8641 99.3514 32.4948 104.104 29.4022Z" fill="white"/>
<path d="M89.2153 12.2969C88.6129 15.1434 81.0339 16.3504 72.42 15.0656C63.8113 13.7764 57.3187 10.4237 57.9211 7.5771C58.0601 6.9152 58.3021 4.50557 59.1104 4.02537C61.7827 2.44202 67.9921 3.76148 74.6082 4.75216C80.7661 5.67362 87.5471 5.74716 89.2204 8.13949C90.2296 9.59306 89.3852 11.4836 89.2153 12.2969Z" fill="#407BFF"/>
<path opacity="0.2" d="M89.2206 8.13943C90.2349 10.0992 89.4317 11.2758 89.2155 12.2968C88.9941 13.348 87.8253 14.1743 86.0078 14.7324C85.7915 14.8059 85.5598 14.8665 85.3178 14.9271C84.0821 15.2342 82.6096 15.4419 80.9723 15.5284C80.7612 15.5457 80.5552 15.55 80.339 15.5587C78.7326 15.6192 76.982 15.563 75.149 15.3986C74.9534 15.3813 74.7474 15.3597 74.5466 15.3381C73.8515 15.2645 73.1359 15.178 72.4202 15.0698C71.7097 14.966 71.0094 14.8406 70.3246 14.7064C70.129 14.6718 69.9333 14.6286 69.7428 14.5896C68.018 14.2262 66.4219 13.785 64.9905 13.2875C64.8 13.2226 64.625 13.1577 64.4447 13.0971C62.9465 12.5434 61.6387 11.9248 60.6089 11.2802C60.4287 11.172 60.2639 11.0639 60.1043 10.9514C58.5134 9.85257 57.6947 8.68019 57.9264 7.58569C58.0757 6.87621 58.1993 4.53147 59.1106 4.03397C60.022 3.53647 61.3143 3.34612 62.8589 3.3418C63.0597 3.3418 63.2657 3.3418 63.4768 3.35045C66.5609 3.43697 70.546 4.15943 74.6033 4.76508C79.3916 5.48321 84.9986 6.10617 88.0209 7.46456C88.2063 7.54676 88.3814 7.63328 88.5461 7.72413C88.7984 7.84959 89.0198 7.98802 89.2206 8.13943Z" fill="black"/>
<g opacity="0.2">
<path opacity="0.2" d="M63.6363 2.88324L63.4716 3.33748L60.6037 11.2715C60.4235 11.1634 60.2587 11.0552 60.0991 10.9427L62.8537 3.32883L63.0648 2.74048L63.6363 2.88324Z" fill="black"/>
</g>
<g opacity="0.2">
<path opacity="0.2" d="M67.9406 5.1068L64.9852 13.2788C64.7947 13.2139 64.6197 13.149 64.4395 13.0884L67.3743 4.95972L67.9406 5.1068Z" fill="black"/>
</g>
<g opacity="0.2">
<path opacity="0.2" d="M77.9451 7.65485L75.1493 15.3942C74.9536 15.3769 74.7477 15.3553 74.5469 15.3337L77.3736 7.51208L77.9451 7.65485Z" fill="black"/>
</g>
<g opacity="0.2">
<path opacity="0.2" d="M73.2958 6.47375L70.325 14.702C70.1293 14.6674 69.9337 14.6241 69.7432 14.5852L72.7243 6.32666L73.2958 6.47375Z" fill="black"/>
</g>
<g opacity="0.2">
<path opacity="0.2" d="M83.6959 7.9967L80.9722 15.5241C80.7611 15.5414 80.5551 15.5457 80.3389 15.5544L83.1244 7.84961L83.6959 7.9967Z" fill="black"/>
</g>
<path d="M89.6156 9.81624C90.2184 6.97008 83.7262 3.619 75.115 2.33141C66.5037 1.04382 59.0342 2.30728 58.4313 5.15345C57.8285 7.99961 64.3207 11.3507 72.932 12.6383C81.5433 13.9259 89.0128 12.6624 89.6156 9.81624Z" fill="#407BFF"/>
<path opacity="0.2" d="M86.6852 9.37895C87.1112 7.36782 81.9327 4.91152 75.1187 3.89266C68.3047 2.87381 62.4355 3.67821 62.0095 5.68934C61.5836 7.70047 66.7621 10.1568 73.5761 11.1756C80.3901 12.1945 86.2593 11.3901 86.6852 9.37895Z" fill="white"/>
<path d="M134.164 84.9663L81.1784 87.5576C79.2991 87.6485 77.4559 88.0292 75.7413 88.6738L18.1884 110.322C16.098 111.109 14.9447 112.991 15.4133 114.847L24.9333 152.631C25.5872 155.222 29.0266 156.589 31.8842 155.391L88.6905 131.563L141.141 130.074C143.896 129.997 145.955 127.924 145.517 125.671L138.495 89.4871C138.139 87.6182 136.45 84.9101 134.164 84.9663Z" fill="#407BFF"/>
<path opacity="0.1" d="M134.164 84.9663L81.1784 87.5576C79.2991 87.6485 77.4559 88.0292 75.7413 88.6738L18.1884 110.322C16.098 111.109 14.9447 112.991 15.4133 114.847L24.9333 152.631C25.5872 155.222 29.0266 156.589 31.8842 155.391L88.6905 131.563L141.141 130.074C143.896 129.997 145.955 127.924 145.517 125.671L138.495 89.4871C138.139 87.6182 136.45 84.9101 134.164 84.9663Z" fill="black"/>
<path d="M27.8073 60.3733L0 81.9073L49.8938 127.392L77.7011 105.858L27.8073 60.3733Z" fill="#407BFF"/>
<path opacity="0.5" d="M77.7039 105.853L49.9006 127.388L0.00390625 81.9035L18.2511 67.7701L27.8124 60.3682L29.4085 61.8174L77.7039 105.853Z" fill="#FAFAFA"/>
<path d="M27.987 63.1531L3.45068 82.1541L50.1203 124.7L74.6567 105.699L27.987 63.1531Z" stroke="#407BFF" stroke-miterlimit="10"/>
<path d="M44.5879 98.9564C47.4023 96.7766 47.0463 92.6056 43.7929 89.6401C40.5395 86.6746 35.6206 86.0377 32.8063 88.2174C29.9919 90.3972 30.3479 94.5682 33.6013 97.5337C36.8547 100.499 41.7736 101.136 44.5879 98.9564Z" fill="#407BFF"/>
<path opacity="0.1" d="M49.6008 108.929L39.7204 111.797L18.25 67.7701L27.8113 60.3682L29.4074 61.8174L49.6008 108.929Z" fill="black"/>
<path d="M51.5192 42.5474L15.9668 53.3763L41.0572 111.53L76.6096 100.701L51.5192 42.5474Z" fill="#407BFF"/>
<path opacity="0.5" d="M51.5192 42.5474L15.9668 53.3763L41.0572 111.53L76.6096 100.701L51.5192 42.5474Z" fill="#FAFAFA"/>
<path d="M50.4035 45.1724L19.0332 54.7275L42.5023 109.123L73.8726 99.568L50.4035 45.1724Z" stroke="#407BFF" stroke-miterlimit="10"/>
<path d="M49.2324 83.5813C52.8306 82.4853 54.4215 78.5233 52.7856 74.7318C51.1498 70.9404 46.9068 68.7553 43.3086 69.8512C39.7104 70.9472 38.1196 74.9093 39.7554 78.7007C41.3912 82.4922 45.6342 84.6773 49.2324 83.5813Z" fill="#407BFF"/>
<path d="M134.51 86.5064L82.2497 88.9809C80.3961 89.0674 78.5786 89.4438 76.8898 90.084L20.1813 111.593C18.1218 112.372 16.989 114.254 17.4576 116.11L26.9673 153.898C27.6212 156.49 31.0194 157.861 33.8358 156.671L89.8029 132.977L141.543 131.602C144.261 131.528 146.285 129.464 145.847 127.211L138.809 91.0314C138.438 89.1582 136.765 86.4544 134.51 86.5064Z" fill="#407BFF"/>
<path opacity="0.2" d="M84.3755 95.5998L129.216 93.2767" stroke="black" stroke-width="2" stroke-miterlimit="10" stroke-linecap="round" stroke-linejoin="round"/>
<path opacity="0.2" d="M79.0059 96.5732L87.1975 128.188" stroke="black" stroke-width="2" stroke-miterlimit="10" stroke-linecap="round" stroke-linejoin="round"/>
<path opacity="0.2" d="M24.3877 125.117L30.1646 149.438C30.1646 149.434 34.5925 139.782 24.3877 125.117Z" fill="#FAFAFA"/>
<path opacity="0.2" d="M25.1499 125.402C25.3456 125.848 76.4574 107.406 76.4574 107.406C76.4574 107.406 77.7497 120.661 62.3703 127.911C46.9858 135.158 25.1499 125.402 25.1499 125.402Z" fill="#FAFAFA"/>
<path d="M59.1007 126.116C60.3234 126.116 61.3147 125.283 61.3147 124.256C61.3147 123.228 60.3234 122.396 59.1007 122.396C57.8779 122.396 56.8867 123.228 56.8867 124.256C56.8867 125.283 57.8779 126.116 59.1007 126.116Z" fill="#407BFF"/>
<path opacity="0.2" d="M76.4829 107.406C76.4829 107.406 82.821 115.418 81.2867 129.075L76.4829 107.406Z" fill="black"/>
<g opacity="0.2">
<g opacity="0.2">
<path opacity="0.2" d="M21.9414 115.565L23.1205 115.128" stroke="#FAFAFA" stroke-linecap="round" stroke-linejoin="round"/>
<path opacity="0.2" d="M25.5664 114.215L73.2955 96.4911" stroke="#FAFAFA" stroke-linecap="round" stroke-linejoin="round" stroke-dasharray="5.2 5.2"/>
<path opacity="0.2" d="M74.521 96.0368L75.7001 95.5999" stroke="#FAFAFA" stroke-linecap="round" stroke-linejoin="round"/>
</g>
</g>
<path opacity="0.2" d="M85.8794 102.708L130.72 100.385" stroke="black" stroke-width="2" stroke-miterlimit="10" stroke-linecap="round" stroke-linejoin="round"/>
<path opacity="0.2" d="M87.8979 111.567L132.739 109.249" stroke="black" stroke-width="2" stroke-miterlimit="10" stroke-linecap="round" stroke-linejoin="round"/>
<path d="M122.914 48.597C122.914 48.597 121.786 58.6898 117.322 59.5594C112.858 60.4289 109.09 58.8672 109.09 58.8672L105.46 56.5224L103.688 61.7094C103.688 61.7094 105.624 63.9201 109.666 62.3886C109.666 62.3886 116.869 65.0578 120.86 62.3886C124.85 59.7194 126.122 52.4127 126.122 52.4127L122.914 48.597Z" fill="#B97964"/>
<path d="M126.503 43.7085C126.503 43.7085 123.388 39.2483 124.804 31.1629C126.22 23.0774 134.288 22.0651 137.403 22.6578C140.518 23.2505 143.066 25.7596 145.188 30.5399C147.309 35.3246 148.091 36.5705 151.629 35.7399C155.166 34.9093 164.578 32.292 167.199 34.6108C169.819 36.9296 168.97 39.5468 168.97 39.5468C168.97 39.5468 182.063 36.869 180.93 46.6806C179.798 56.4921 160.902 65.6505 142.927 55.9557C124.943 46.2653 126.503 43.7085 126.503 43.7085Z" fill="#263238"/>
<path d="M126.353 67.4545C126.353 67.4545 122.796 93.1644 122.914 105.226C123.032 117.282 128.135 145.688 128.135 145.688H134.422C134.422 145.688 133.593 122.967 133.711 115.193C133.829 107.419 135.492 94.5661 135.492 94.5661C135.492 94.5661 137.511 106.125 139.879 110.214C142.253 114.297 155.418 128.751 164.552 133.233L168.82 129.945C168.82 129.945 159.331 120.077 155.773 115.197C152.216 110.313 149.013 108.92 147.71 99.8482C146.408 90.7808 148.658 76.2278 144.863 67.4588H126.353V67.4545Z" fill="#263238"/>
<path opacity="0.2" d="M135.487 94.5618L132.753 78.2654C132.753 78.2654 130.596 88.064 134.849 100.026L135.487 94.5618Z" fill="black"/>
<path d="M129.422 147.137L129.633 152.185L133.85 152.48L134.061 152.008V146.782L129.422 147.137Z" fill="#B97964"/>
<path d="M127.419 145.216L127.805 147.106L135.044 147.254L135.503 144.978L127.419 145.216Z" fill="#407BFF"/>
<path d="M162.56 133.583L169.274 128.327L170.746 130.304L164.985 134.734L162.56 133.583Z" fill="#407BFF"/>
<path d="M165.793 133.583L170.221 136.711L173.068 133.907L169.428 130.749L165.793 133.583Z" fill="#B97964"/>
<path d="M173.923 133.687L176.6 135.071C177.12 135.34 177.228 135.937 176.822 136.322C174.881 138.16 169.922 142.841 169.428 143.174C168.815 143.59 168.074 142.88 167.899 142.231C167.899 142.231 169.305 140.665 169.428 139.661C169.521 138.922 169.474 137.849 169.449 137.334C169.438 137.139 169.516 136.949 169.665 136.802L172.656 133.856C172.976 133.544 173.511 133.475 173.923 133.687Z" fill="#263238"/>
<path d="M134.88 152.609L135.436 155.209C135.544 155.715 135.086 156.178 134.473 156.183C131.543 156.191 124.088 156.213 123.465 156.122C122.687 156.014 122.826 155.08 123.285 154.534C123.285 154.534 125.612 154.37 126.58 153.777C127.295 153.34 128.217 152.596 128.66 152.237C128.825 152.099 129.046 152.025 129.278 152.017L133.886 151.926C134.375 151.922 134.792 152.207 134.88 152.609Z" fill="#263238"/>
<path d="M145.532 53.1999L151.958 49.4102C151.958 49.4102 150.249 43.6652 147.72 43.3797C145.192 43.0941 132.614 41.0825 124.618 43.3797C124.618 43.3797 121.745 44.0675 120.859 50.8465L124.278 51.7636C124.278 51.7636 125.509 64.4564 126.26 66.4118H144.513C144.508 66.4074 144.714 55.497 145.532 53.1999Z" fill="#407BFF"/>
<path d="M146.922 52.3824C146.922 52.3824 149.353 58.2226 149.79 61.3634C149.79 61.3634 144.003 59.4296 142.505 58.5384L141.377 55.1208L137.526 53.5677L136.409 56.1288L139.58 59.4772C139.58 59.4772 148.292 66.3297 152.715 64.7593C157.138 63.189 150.964 49.9944 150.964 49.9944L146.922 52.3824Z" fill="#B97964"/>
<path d="M130.57 26.8065C130.57 26.8065 128.346 30.5486 128.531 33.5855C128.716 36.6224 130.524 37.8726 134.004 38.3009C134.004 38.3009 135.487 42.1987 131.595 42.5881C131.301 42.6184 131.193 43.609 131.219 43.7691C131.322 44.4007 132.063 44.7468 132.738 44.8939C133.458 45.0539 134.226 45.0799 134.972 45.1015C136.64 45.1491 138.015 44.5824 139.122 43.5485C139.21 43.4706 139.987 42.627 139.987 42.627C139.987 42.627 138.133 41.8526 138.782 36.7825C138.782 36.7825 140.033 36.1984 140.728 34.7578C140.728 34.7578 141.933 34.2517 142.211 33.2394C142.489 32.2271 141.424 30.8254 139.477 32.2271C139.477 32.2271 135.816 30.6697 134.421 25.2145C134.416 25.2102 132.98 26.5729 130.57 26.8065Z" fill="#B97964"/>
<path d="M131.615 32.7592L131.935 30.7605L130.251 32.3265C130.246 32.3265 130.781 32.8413 131.615 32.7592Z" fill="#A24E3F"/>
<path d="M132.594 34.2215C132.594 34.2215 134.37 34.4507 135.225 33.4904" stroke="#222221" stroke-width="0.75" stroke-miterlimit="10" stroke-linecap="round" stroke-linejoin="round"/>
<path d="M134.375 27.9572C134.375 27.9572 135.508 27.5895 136.676 28.472" stroke="#222221" stroke-miterlimit="10" stroke-linecap="round" stroke-linejoin="round"/>
<path d="M131.301 27.5246C131.301 27.5246 130.292 27.3905 129.813 27.8836" stroke="#222221" stroke-miterlimit="10" stroke-linecap="round" stroke-linejoin="round"/>
<path d="M135.091 30.5918C135.044 30.8946 134.813 31.1153 134.576 31.0893C134.339 31.0634 134.179 30.7995 134.226 30.4966C134.272 30.1938 134.504 29.9732 134.741 29.9991C134.978 30.0251 135.137 30.289 135.091 30.5918Z" fill="#222221"/>
<path d="M130.995 29.9251C131.042 29.6241 130.885 29.359 130.646 29.3328C130.406 29.3066 130.174 29.5294 130.127 29.8303C130.081 30.1312 130.237 30.3963 130.477 30.4225C130.717 30.4487 130.949 30.226 130.995 29.9251Z" fill="#222221"/>
<path d="M134.741 29.9992L133.927 29.7007C133.927 29.7007 134.097 30.315 134.741 29.9992Z" fill="#222221"/>
<path d="M130.709 29.3589L129.896 29.0604C129.896 29.0604 130.06 29.6747 130.709 29.3589Z" fill="#222221"/>
<path d="M125.622 65.7326V67.5366L145.388 67.6794L144.863 65.5293L125.622 65.7326Z" fill="#407BFF"/>
<path opacity="0.4" d="M125.622 65.7326V67.5366L145.388 67.6794L144.863 65.5293L125.622 65.7326Z" fill="white"/>
<path d="M125.86 56.9767L114.991 88.7605C114.224 91.0057 111.917 92.5285 109.317 92.7448C108.509 92.8097 107.669 92.7534 106.835 92.5544L86.0291 87.5318C82.5331 86.6839 80.5096 83.6167 81.5137 80.6793L92.3878 48.8912C92.9697 47.191 94.4371 45.9062 96.2546 45.2876C97.5727 44.8376 99.0709 44.7425 100.543 45.1015L121.345 50.1198C124.846 50.9677 126.869 54.0349 125.86 56.9767Z" fill="#407BFF"/>
<path opacity="0.2" d="M125.86 56.9767L114.991 88.7605C114.224 91.0057 111.917 92.5285 109.317 92.7448C108.509 92.8097 107.669 92.7534 106.835 92.5544L86.0291 87.5318C82.5331 86.6839 80.5096 83.6167 81.5137 80.6793L92.3878 48.8912C92.9697 47.191 94.4371 45.9062 96.2546 45.2876C97.5727 44.8376 99.0709 44.7425 100.543 45.1015L121.345 50.1198C124.846 50.9677 126.869 54.0349 125.86 56.9767Z" fill="black"/>
<path d="M124.052 57.3573L113.183 89.1411C112.601 90.8455 111.129 92.1347 109.317 92.749C108.508 92.8139 107.669 92.7577 106.835 92.5587L86.0286 87.5361C82.5326 86.6882 80.5092 83.621 81.5132 80.6835L92.3874 48.8954C92.9692 47.1953 94.4366 45.9104 96.2541 45.2918C97.0624 45.2269 97.9017 45.2831 98.7358 45.4821L119.537 50.5004C123.038 51.344 125.061 54.4112 124.052 57.3573Z" fill="#407BFF"/>
<path opacity="0.5" d="M124.052 57.3573L113.183 89.1411C112.601 90.8455 111.129 92.1347 109.317 92.749C108.508 92.8139 107.669 92.7577 106.835 92.5587L86.0286 87.5361C82.5326 86.6882 80.5092 83.621 81.5132 80.6835L92.3874 48.8954C92.9692 47.1953 94.4366 45.9104 96.2541 45.2918C97.0624 45.2269 97.9017 45.2831 98.7358 45.4821L119.537 50.5004C123.038 51.344 125.061 54.4112 124.052 57.3573Z" fill="#FAFAFA"/>
<path d="M94.8233 60.0513L92.5981 59.5245L84.5915 83.4001L86.8166 83.9269L94.8233 60.0513Z" fill="#FAFAFA"/>
<path d="M90.0036 84.6895L87.7793 84.1531L95.7856 60.286L98.0099 60.8224L90.0036 84.6895Z" fill="#FAFAFA"/>
<path d="M93.2372 85.4724L91.0181 84.9359L99.0192 61.0646L101.244 61.601L93.2372 85.4724Z" fill="#FAFAFA"/>
<path opacity="0.5" d="M114.203 64.7276L111.978 64.2008L103.971 88.0764L106.196 88.6032L114.203 64.7276Z" fill="black"/>
<path d="M113.91 57.9845L112.803 61.2248L111.484 60.9133C110.156 60.5975 109.384 59.4381 109.754 58.3219L110.475 56.1719L113.137 56.8121C113.734 56.9592 114.079 57.4827 113.91 57.9845Z" fill="#FAFAFA"/>
<path d="M113.276 56.3969L110.614 55.7566L111.412 53.3859C111.783 52.2698 113.168 51.6209 114.496 51.9324L115.866 52.2568L114.671 55.748C114.501 56.2541 113.878 56.544 113.276 56.3969Z" fill="#FAFAFA"/>
<path d="M115.799 57.4567L118.477 58.1013L117.766 60.2167C117.395 61.3329 116.015 61.9861 114.687 61.6703L113.297 61.3415L114.404 58.1056C114.574 57.6038 115.197 57.3139 115.799 57.4567Z" fill="#FAFAFA"/>
<path d="M119.423 55.2806L118.615 57.6859L115.938 57.0413C115.34 56.8942 114.995 56.3708 115.165 55.869L116.36 52.3778L117.693 52.6936C119.022 53.0051 119.794 54.1645 119.423 55.2806Z" fill="#FAFAFA"/>
</svg>
