<svg width="298" height="144" viewBox="0 0 298 144" fill="none" xmlns="http://www.w3.org/2000/svg">
<path d="M264.807 83.8153C264.867 92.3021 264.299 100.081 263.236 106.962C263.161 107.479 263.077 107.995 262.989 108.498C262.434 111.85 261.758 114.974 260.994 117.86C260.858 118.354 260.723 118.842 260.588 119.322C257.647 129.592 253.466 136.533 249.005 139.098H61.7071C61.7071 139.098 45.7419 125.276 42.5349 105.528C42.451 105.025 42.3764 104.522 42.3159 104.015C41.0713 94.1875 43.0757 82.996 51.6991 71.3529C55.6333 66.0551 60.8028 62.3634 66.7413 59.8215C67.2074 59.626 67.6643 59.4398 68.1397 59.2582C76.945 55.8179 87.2885 54.7379 97.674 54.5749C98.2007 54.5656 98.7228 54.561 99.2496 54.561C105.435 54.5144 111.602 54.7705 117.452 55.0032C118.007 55.0312 118.557 55.0544 119.102 55.0777C128.546 55.4734 137.058 55.7667 143.234 54.6354H143.243C143.812 54.5284 144.353 54.412 144.879 54.277H144.889C151.727 52.6057 155.097 48.7278 152.673 40.3947C147.975 24.2266 152.785 12.374 163.255 5.82852C163.786 5.49333 164.341 5.16746 164.905 4.8602C170.829 1.65731 178.315 -0.0232825 186.78 -5.59022e-06C187.372 -5.59022e-06 187.974 0.0139605 188.58 0.0279266C195.777 0.246729 203.636 1.66196 211.798 4.36673C216.189 5.81921 220.281 7.62084 224.071 9.69714C224.537 9.95318 225.003 10.2139 225.451 10.4839C232.881 14.7715 239.137 20.1857 244.315 26.3029C244.67 26.7079 245.005 27.1222 245.346 27.5412C258.803 44.1096 264.671 65.4964 264.807 83.8153Z" fill="#E4EBF7"/>
<path d="M260.994 117.865C260.858 118.358 260.723 118.847 260.588 119.327C257.819 118.335 254.906 117.069 251.927 115.458C238.19 108.005 220.701 91.4084 215.401 54.617C213.117 38.7561 216.03 23.6494 224.071 9.69727C224.537 9.95331 225.003 10.214 225.451 10.484C218.394 22.7183 214.431 37.3455 216.888 54.3982C222.099 90.5378 239.165 106.813 252.571 114.099C255.451 115.668 258.29 116.906 260.994 117.865Z" fill="white"/>
<path d="M263.236 106.966C263.161 107.483 263.077 108 262.989 108.503C254.314 104.434 243.374 95.5793 238.27 76.3573C233.338 57.7451 235.305 41.2232 244.311 26.3027C244.665 26.7078 245.001 27.1221 245.341 27.5411C236.778 41.996 234.951 57.9825 239.729 75.9756C244.609 94.3643 254.943 102.953 263.236 106.966Z" fill="white"/>
<path d="M181.341 31.4191C182.068 55.8412 179.285 71.6229 172.312 82.5956C165.007 94.0944 152.827 101.045 132.807 105.128C129.078 105.891 125.391 106.273 121.773 106.273C110.507 106.273 99.8929 102.609 90.5936 95.4398C79.7792 87.0974 71.496 74.5325 66.7461 59.8262C67.2122 59.6307 67.669 59.4445 68.1445 59.2629C72.7965 73.7225 80.9119 86.0779 91.5165 94.2573C103.436 103.456 117.615 106.701 132.508 103.666C169.739 96.059 181.238 78.5082 179.84 31.461C179.439 18.1047 181.774 7.56498 186.78 0C187.372 0 187.974 0.0139661 188.58 0.0279322C183.373 7.37877 180.94 17.8999 181.341 31.4191Z" fill="white"/>
<path d="M134.886 81.9577C133.338 82.2138 131.739 82.3488 130.112 82.3488C118.109 82.3488 104.368 75.0864 97.6787 54.5841C98.2054 54.5748 98.7275 54.5702 99.2542 54.5702C106.624 76.5808 122.426 82.4884 134.639 80.4866C151.135 77.7865 167.002 60.8223 163.935 34.701C162.616 23.4955 162.555 13.9287 163.259 5.8377C163.791 5.50252 164.345 5.17664 164.909 4.86938C164.089 13.1094 164.061 22.9276 165.427 34.5241C168.601 61.5672 152.058 79.1459 134.886 81.9577Z" fill="white"/>
<path d="M144.884 54.2817C144.306 56.912 143.295 59.5982 141.561 61.8514C139.258 64.8634 136.023 66.6511 131.944 67.1492C131.455 67.2097 130.975 67.2376 130.504 67.2376C127.973 67.2376 125.656 66.3764 123.6 64.6493C120.883 62.3681 118.902 58.83 117.461 55.0033C118.016 55.0313 118.566 55.0545 119.112 55.0778C120.449 58.4669 122.221 61.5302 124.57 63.504C126.672 65.2638 129.096 65.9947 131.762 65.6641C135.426 65.2126 138.316 63.6251 140.372 60.9482C141.798 59.0907 142.698 56.8608 143.248 54.6355H143.257C143.817 54.5378 144.357 54.4167 144.884 54.2817Z" fill="white"/>
<path d="M86.5985 139.102H84.9623C78.2313 123.707 68.5264 113.442 56.0806 108.577C51.5638 106.808 46.977 105.886 42.5394 105.533C42.4555 105.03 42.3809 104.527 42.3203 104.02C46.9956 104.355 51.8434 105.318 56.626 107.185C69.6218 112.264 79.695 122.986 86.5985 139.102Z" fill="white"/>
<path d="M54.1089 92.6976L49.4709 97.4741L47.5364 94.6343L46.8931 93.6846C44.8282 94.2013 41.7796 90.1698 40.5584 88.019C39.3418 85.8589 44.2222 82.5303 44.2222 82.5303C43.4251 80.1468 40.2274 78.6477 40.1389 77.9867C40.0503 77.3349 40.8427 76.632 43.7514 77.9867C46.6647 79.3507 49.1912 84.169 49.1912 84.169C49.7086 82.7677 47.4106 78.9736 47.8347 78.5453C48.2543 78.1263 50.5057 78.6431 52.2397 82.2929C53.9831 85.952 52.9436 90.2629 52.9436 90.2629L52.9669 90.3001L54.1089 92.6976Z" fill="#98B2D8"/>
<path d="M44.0453 82.1067C44.0453 82.1067 47.4901 86.0452 47.1218 87.5907C46.7536 89.1363 45.0149 87.344 45.0149 87.344C45.0149 87.344 46.6091 89.1829 46.0917 89.7927C45.5743 90.4026 43.6538 88.857 43.6538 88.857C43.6538 88.857 45.9518 91.7154 43.6538 91.2918C41.3558 90.8681 38.4657 86.5386 40.6845 86.1057C40.6845 86.1057 40.4142 82.954 42.4325 84.0294C42.4325 84.0294 41.5282 81.3991 44.0453 82.1067Z" fill="#B1C3E8"/>
<path d="M85.9228 139.13C85.9228 139.13 89.8011 127.808 87.7641 116.65C87.7641 116.65 87.7547 116.626 87.7501 116.575C87.7501 116.552 87.7407 116.524 87.7361 116.487C87.6755 116.193 87.6149 115.9 87.5543 115.611C87.5543 115.611 85.3029 117.576 82.1937 119.527C78.4647 121.873 73.4863 124.205 69.664 123.111C62.6534 121.109 52.3984 107.497 47.6392 96.7478C47.6392 96.7478 50.0164 93.1865 54.771 92.0925C54.771 92.0925 64.2802 104.746 72.6659 107.744C72.6659 107.744 77.1688 102.367 80.6695 94.4993C82.9069 89.4761 86.2631 86.2965 90.4956 84.588C92.8962 83.6057 95.5858 83.1029 98.5038 83.0145L105.85 79.5881C105.85 79.5881 107.043 79.5974 108.899 79.8349C112.343 80.2864 118.072 81.5434 122.701 85.0675C129.833 90.4957 140.092 139.14 140.092 139.14H85.9228V139.13Z" fill="#B7CAE5"/>
<path d="M87.7502 116.575C87.6896 116.254 87.6243 115.933 87.5544 115.607C87.5544 115.607 85.303 117.571 82.1938 119.522L84.3614 100.989C86.5709 109.476 87.629 115.816 87.7502 116.575Z" fill="#97B3D1"/>
<path d="M108.899 79.8256C107.766 87.0228 100.55 93.6707 95.3434 93.5822C91.1529 93.5077 90.5376 87.5116 90.4956 84.5787C92.8962 83.5964 95.5858 83.0937 98.5038 83.0052L105.85 79.5789C105.855 79.5789 107.048 79.5882 108.899 79.8256Z" fill="#CED9EA"/>
<path d="M96.4297 131.775C96.4297 131.775 112.977 114.573 113.7 96.4917L118.58 111.733L116.702 127.604L96.4297 131.775Z" fill="#97B3D1"/>
<path d="M95.9493 139.126H77.4204C77.4204 139.126 77.467 136.598 80.3291 135.751C83.1912 134.908 85.0184 131.347 93.6046 131.817L95.9493 139.126Z" fill="#98B2D8"/>
<path d="M114.907 122.12C114.907 122.12 106.177 127.133 92.4303 130.695C92.4303 130.695 90.5239 135.285 93.8707 139.13H120.468L114.907 122.12Z" fill="#B6C5DD"/>
<path d="M82.4038 69.5558C82.4038 69.5558 78.451 64.1091 78.9404 60.4406C79.4298 56.7722 82.828 57.6334 82.828 57.6334C82.828 57.6334 82.6695 48.7184 90.9294 50.9995C90.9294 50.9995 90.7476 48.2761 92.5515 48.3506C94.3555 48.4205 97.1849 52.5637 97.1849 52.5637C97.1849 52.5637 97.8888 49.4958 99.1101 50.2174C100.331 50.9437 100.709 54.1093 103.259 55.6363C105.808 57.1632 107.389 59.1371 105.384 65.3195C103.38 71.5018 104.885 71.9394 104.168 75.1144C103.487 78.131 102.946 79.9653 101.072 80.1329C99.1986 80.3004 92.0248 72.7448 92.0248 72.7448L82.4038 69.5558Z" fill="#5D7CA0"/>
<path d="M105.855 79.5789C105.855 79.5789 101.254 90.7239 96.4205 89.8859C94.0199 89.4669 93.4838 88.0051 93.4652 86.3106C93.4419 84.0993 94.3042 81.5062 92.999 80.4169L98.7931 72.1955L100.07 70.3799C100.066 70.3799 101.627 74.8956 105.855 79.5789Z" fill="#98B2D8"/>
<path d="M93.4608 86.3106C93.4375 84.0993 94.2998 81.5063 92.9946 80.4169L98.7887 72.1956C99.2828 72.7728 99.6371 73.8017 99.7816 75.4124C100.546 83.9038 96.0525 85.8777 93.4608 86.3106Z" fill="#799CBF"/>
<path d="M81.8398 65.2219C81.8398 65.2219 83.4061 79.579 89.2747 82.8145C94.3742 85.6217 100.564 77.1256 100.443 72.9265C100.443 72.9265 102.667 71.2319 102.294 68.4899C101.921 65.7479 99.0169 66.6557 98.672 71.0783C98.672 71.0783 96.3087 70.9107 95.8752 65.3848C94.3928 66.6092 92.794 66.2321 91.1113 64.7424C91.1113 64.7424 90.2769 67.8196 85.9838 64.2256C85.9791 64.2163 84.357 66.4136 81.8398 65.2219Z" fill="#98B2D8"/>
<path d="M220.221 120.854C220.221 120.854 227.796 133.474 230.415 139.596H203.71C203.71 139.596 202.191 132.217 199.515 125.132L220.221 120.854Z" fill="#5D7CA0"/>
<path d="M209.807 123.665C208.344 128.502 206.115 132.632 202.811 135.765L203.715 139.591L171.402 139.196L175.001 117.106L209.807 123.665Z" fill="#799CBF"/>
<path d="M260.499 54.7985C260.499 54.7985 261.567 48.1088 263.697 45.7345C265.823 43.3603 271.64 39.8501 272.33 41.0978C273.02 42.3454 267.202 46.2652 267.202 46.2652C267.202 46.2652 269.831 45.6414 272.083 49.5147C274.334 53.388 267.077 56.386 267.077 56.386L265.636 59.6355L259.879 56.0136L260.499 54.7985Z" fill="#799CBF"/>
<path d="M267.939 46.3911C267.939 46.3911 264.695 49.6824 265.17 50.6228C265.646 51.5632 267.431 50.0874 267.431 50.0874C267.431 50.0874 265.972 52.3034 267.105 52.876C268.237 53.4486 269.985 51.5306 269.985 51.5306C269.985 51.5306 268.526 53.5464 269.365 53.9188C270.204 54.2866 274.689 51.1302 273.887 50.39C273.085 49.6498 272.647 50.255 272.647 50.255C272.647 50.255 273.584 48.6768 272.647 48.1694C271.626 47.6201 271.113 48.607 271.113 48.607C271.113 48.607 271.878 47.3966 271.258 46.9264C270.638 46.4562 269.323 47.0614 269.323 47.0614C269.323 47.0614 269.762 45.0503 267.939 46.3911Z" fill="#98B2D8"/>
<path d="M264.928 46.3119C263.944 46.0326 261.94 48.0763 261.94 48.0763C261.152 49.0865 260.994 51.1023 260.961 52.0333C260.859 54.631 259.875 56.009 259.875 56.009L262.798 57.8479C265.058 54.9383 264.317 51.214 263.954 49.8919C265.058 48.2485 265.515 46.4795 264.928 46.3119Z" fill="#98B2D8"/>
<path d="M266.82 60.3197C266.82 60.3197 257.064 86.2734 241.556 88.5731C234.62 89.602 229.38 89.7044 225.716 89.5089C221.349 89.2854 219.2 88.6243 219.041 88.5778C219.032 88.5778 219.032 88.5685 219.032 88.5685C219.032 88.5685 214.776 96.4826 217.531 107.856C220.277 119.219 221.283 121.598 221.283 121.598C221.283 121.598 200.377 136.952 183.377 122.972L168.037 99.1501L163.231 91.6829C163.231 91.6829 167.645 77.2094 180.091 67.8009L180.1 67.7915C184.79 64.2395 190.63 61.4044 197.8 60.3569C201.477 59.8029 205.5 59.7191 209.9 60.2452C209.9 60.2452 213.28 61.1995 218.771 63.206C221.726 64.2861 225.301 65.6734 229.287 67.3819C240.675 72.2561 243.802 73.7085 243.802 73.7085C243.802 73.7085 255.931 61.7582 259.064 54.5098C259.064 54.5098 265.319 55.1429 266.82 60.3197Z" fill="#B7CAE5"/>
<path d="M188.533 72.1724C188.477 77.9869 187.232 83.6246 186.682 88.0006L196.327 86.05L211.331 100.863C211.331 100.863 213.233 105.202 209.364 105.952C206.33 106.538 192.159 108.508 192.159 108.508C188.892 112.949 187.419 119.736 185.787 126.328L171.402 101.362L188.533 72.1724Z" fill="#97B3D1"/>
<path d="M209.9 73.5689C203.183 71.8651 199.645 65.8317 197.799 60.3616C201.477 59.8077 205.5 59.7239 209.9 60.2499C209.9 60.2499 213.28 61.2043 218.771 63.2107C219.419 67.9965 219.186 75.9152 209.9 73.5689Z" fill="#CED9EA"/>
<path d="M227.539 78.876C227.539 78.876 226.098 84.5136 225.716 89.5135C221.348 89.29 219.2 88.629 219.041 88.5824C219.032 88.5824 219.032 88.5731 219.032 88.5731C219.032 88.5731 222.849 82.0603 227.539 78.876Z" fill="#97B3D1"/>
<path d="M210.772 103.335L194.014 105.766C193.52 105.835 193.059 105.496 192.984 104.997L189.283 79.5278C189.213 79.0344 189.553 78.5735 190.052 78.499L206.81 76.0689C207.304 75.9991 207.765 76.3389 207.835 76.837L211.536 102.307C211.611 102.805 211.266 103.261 210.772 103.335Z" fill="#F2F4F9"/>
<path d="M198.578 87.1208L201.141 86.1199C201.141 86.1199 203.579 79.3742 206.614 83.6199C206.614 83.6199 208.711 82.3723 208.646 81.6833C208.586 80.9943 208.553 79.998 208.553 79.998C208.553 79.998 212.799 80.9152 211.848 86.8275C210.898 92.7398 207.271 91.9903 203.705 92.0555L199.263 93.8059L198.578 87.1208Z" fill="#98B2D8"/>
<path d="M200.232 95.3654C200.232 95.3654 180.249 108.573 171.621 102.204C170.307 101.231 169.113 100.202 168.041 99.1549L163.235 91.6877C163.235 91.6877 167.65 77.2141 180.095 67.8056L180.105 67.7963C184.23 65.9435 188.542 66.6185 188.761 70.4359C189.288 79.5279 181.503 85.119 180.538 89.2436L198.447 85.6217C198.447 85.6217 201.361 88.7082 200.232 95.3654Z" fill="#C1CFE5"/>
<path d="M223.721 46.4142C223.721 46.4142 226.579 40.3203 225.409 36.8101C224.239 33.3 221.064 34.785 221.064 34.785C221.064 34.785 219.54 26.0003 211.858 29.7898C211.858 29.7898 211.522 27.085 209.765 27.4901C208.008 27.8997 206.008 32.4992 206.008 32.4992C206.008 32.4992 204.74 29.6176 203.677 30.558C202.615 31.4983 202.838 34.6826 200.62 36.6611C198.401 38.6397 197.221 40.8743 200.354 46.5724C203.486 52.2706 202.093 52.9829 203.393 55.967C204.628 58.8021 205.505 60.5013 207.378 60.3151C209.252 60.1289 214.874 51.3582 214.874 51.3582L223.721 46.4142Z" fill="#5D7CA0"/>
<path d="M202.577 60.6642C202.577 60.6642 206.996 71.5345 213.937 69.7562C216.3 69.151 216.314 66.6185 216.016 64.9472C215.62 62.7731 214.286 60.3849 215.363 59.0721L208.124 52.0844L206.53 50.5435C206.525 50.5435 205.845 55.2687 202.577 60.6642Z" fill="#98B2D8"/>
<path d="M216.016 64.9473C215.62 62.7732 214.287 60.385 215.363 59.0722L208.124 52.0845C207.747 52.7455 207.593 53.8209 207.756 55.427C208.6 63.9138 213.387 65.0078 216.016 64.9473Z" fill="#799CBF"/>
<path d="M223.456 42.052C223.456 42.052 224.621 56.4511 219.466 60.7247C214.986 64.4397 207.304 57.2611 206.638 53.1085C206.638 53.1085 204.134 51.8609 203.985 49.0956C203.836 46.3303 206.857 46.6795 208.031 50.9578C208.031 50.9578 210.32 50.3479 209.709 44.8406C211.397 45.767 212.898 45.0966 214.268 43.3136C214.268 43.3136 215.667 46.1767 219.205 41.8425C219.205 41.8379 221.209 43.6907 223.456 42.052Z" fill="#98B2D8"/>
<path d="M186.803 131.17V131.179C186.584 132.064 186.277 132.874 185.881 133.6C182.254 140.22 166.555 139.13 166.555 139.13H130.713C115.881 139.13 109.938 138.763 108.516 134.14C108.432 133.893 108.372 133.628 108.32 133.353C107.314 127.976 112.32 110.491 121.577 98.4937C126.313 92.3626 131.208 89.1317 135.571 87.4418C139.738 85.8311 143.416 85.6216 145.998 85.6216C150.548 85.6216 154.216 85.9568 157.334 86.6877C165.697 88.6429 170.074 93.3681 176.632 101.738C184.65 111.971 188.598 123.987 186.803 131.17Z" fill="url(#paint0_linear)"/>
<path opacity="0.22" d="M123.768 126.924C127.656 120.816 128.882 112.339 129.963 103.74L133.342 121.23H162.616L167.995 103.74C167.869 111.915 168.992 119.932 172.875 127.604C172.871 127.599 153.731 149.233 123.768 126.924Z" fill="#1F395E"/>
<path d="M132.657 139.13H130.714C115.881 139.13 109.938 138.763 108.516 134.14C107.742 130.504 108.726 126.682 113.164 125.541C120.114 123.758 132.214 130.788 132.214 130.788L132.657 139.13Z" fill="url(#paint1_linear)"/>
<path d="M186.804 131.17C186.804 131.17 186.813 131.17 186.804 131.179C186.584 132.064 186.277 132.874 185.881 133.6C182.254 140.22 166.555 139.131 166.555 139.131H155.917L157.269 130.136C157.269 130.136 176.124 121.417 182.879 124.14C186.184 125.462 187.195 128.223 186.804 131.17Z" fill="url(#paint2_linear)"/>
<path d="M157.33 86.6877C157.013 90.8915 155.274 98.5542 146.791 98.5542C137.85 98.5542 135.958 91.0032 135.571 87.4465C139.738 85.8358 143.416 85.6263 145.998 85.6263C150.543 85.6216 154.216 85.9568 157.33 86.6877Z" fill="#1F395E"/>
<path d="M165.053 139.126H130.713C129.884 139.126 129.212 138.455 129.212 137.627C129.212 136.798 129.884 136.128 130.713 136.128H165.053C165.883 136.128 166.554 136.798 166.554 137.627C166.554 138.455 165.883 139.126 165.053 139.126Z" fill="white"/>
<path d="M169.212 113.344L169.086 114.122V114.131L165.529 136.132H130.527L127.008 113.33C126.835 112.213 127.707 111.203 128.83 111.203H167.389C168.526 111.198 169.393 112.218 169.212 113.344Z" fill="url(#paint3_linear)"/>
<path d="M169.085 114.131L165.529 136.132H130.718L142.516 134.903C154.626 133.651 164.946 125.569 169.085 114.131Z" fill="#3150BC"/>
<path d="M146.646 95.3654H146.413C145.061 95.3654 143.942 95.0861 143.033 94.6811C140.829 93.6895 139.491 91.3897 139.542 88.9783C139.551 88.7315 139.551 88.4895 139.551 88.252C139.561 86.2502 139.43 84.5883 139.43 84.5883V83.6898L152.039 83.1265C152.086 84.9421 152.295 86.5528 152.543 87.8424C152.552 87.8656 152.552 87.8796 152.557 87.9029C153.284 91.6877 150.506 95.2677 146.646 95.3654Z" fill="#FEB19E"/>
<path d="M152.547 87.8421C147.294 94.0058 141.896 90.4072 139.556 88.2564C139.565 86.2546 139.435 84.5926 139.435 84.5926V83.6942L152.044 83.1309C152.09 84.9371 152.3 86.5526 152.547 87.8421Z" fill="#FF856A"/>
<path d="M135.575 77.5678C135.575 77.5678 139.486 88.5732 146.007 88.5732C152.528 88.5732 155.241 76.7206 155.241 76.7206V66.4136H135.081L135.575 77.5678Z" fill="#FEB19E"/>
<path d="M133.478 71.3577C133.478 71.3577 131.557 71.7068 131.884 73.9088C132.21 76.1108 134.214 78.783 135.841 77.3771L133.478 71.3577Z" fill="#FEB19E"/>
<path d="M156.761 70.4358C156.761 70.4358 158.71 70.5242 158.686 72.7495C158.663 74.9748 157.041 77.8937 155.237 76.7205L156.761 70.4358Z" fill="#FEB19E"/>
<path d="M156.761 70.4358C156.761 70.4358 156.085 74.2858 155.237 76.7206C155.237 76.7206 153.694 76.4086 153.19 72.3492C153.19 72.3492 149.853 73.0009 147.755 69.8492C147.755 69.8492 147.256 72.973 144.035 70.757C141.887 72.5075 139.346 72.6937 136.465 71.5065C136.465 71.5065 136.95 75.6033 135.575 77.5678C135.575 77.5678 135.076 75.9524 133.478 71.3576C133.478 71.3576 132.792 71.3808 132.354 72.0047C132.354 72.0047 128.9 65.2544 130.527 62.0096C132.154 58.7648 134.345 60.0124 134.345 60.0124C134.345 60.0124 133.533 55.5759 138.349 53.9511C143.164 52.3264 143.164 50.1384 143.914 50.576C144.665 51.0136 144.977 52.6383 144.977 52.6383C144.977 52.6383 153.298 51.7631 155.549 60.6968C155.549 60.6968 161.557 60.8876 157.992 70.9479C157.987 70.9432 157.754 70.5289 156.761 70.4358Z" fill="url(#paint4_linear)"/>
<path opacity="0.6" d="M124.616 79.7883H93.1801C92.1593 79.7883 91.3296 80.617 91.3296 81.6365V100.374C91.3296 101.394 92.1593 102.223 93.1801 102.223H114.865L120.519 107.227C120.948 107.604 121.6 107.171 121.414 106.631L119.885 102.223H124.616C125.637 102.223 126.467 101.394 126.467 100.374V81.6365C126.471 80.617 125.642 79.7883 124.616 79.7883Z" fill="#9ABCED"/>
<path d="M102.932 84.8021H95.6879C95.4176 84.8021 95.1938 84.5833 95.1938 84.3087C95.1938 84.0387 95.4129 83.8152 95.6879 83.8152H102.932C103.207 83.8152 103.426 84.034 103.426 84.3087C103.426 84.5833 103.207 84.8021 102.932 84.8021Z" fill="#9ABCED"/>
<path d="M120.794 89.0758H99.8086C99.5335 89.0758 99.3145 88.857 99.3145 88.5823C99.3145 88.3077 99.5335 88.0889 99.8086 88.0889H120.794C121.064 88.0889 121.288 88.3077 121.288 88.5823C121.283 88.857 121.064 89.0758 120.794 89.0758Z" fill="#9ABCED"/>
<path d="M120.794 92.1205H95.6928C95.4225 92.1205 95.1987 91.9017 95.1987 91.627C95.1987 91.3524 95.4178 91.1335 95.6928 91.1335H120.794C121.065 91.1335 121.288 91.3524 121.288 91.627C121.284 91.897 121.065 92.1205 120.794 92.1205Z" fill="#9ABCED"/>
<path d="M120.794 95.1603H95.6928C95.4225 95.1603 95.1987 94.9415 95.1987 94.6668C95.1987 94.3921 95.4178 94.1733 95.6928 94.1733H120.794C121.065 94.1733 121.288 94.3921 121.288 94.6668C121.284 94.9368 121.065 95.1603 120.794 95.1603Z" fill="#9ABCED"/>
<path d="M120.794 98.2003H95.6928C95.4225 98.2003 95.1987 97.9815 95.1987 97.7068C95.1987 97.4322 95.4178 97.2134 95.6928 97.2134H120.794C121.065 97.2134 121.288 97.4322 121.288 97.7068C121.284 97.9815 121.065 98.2003 120.794 98.2003Z" fill="#9ABCED"/>
<path d="M263.991 144H35.8084C35.3609 144 34.9927 143.637 34.9927 143.185V139.94C34.9927 139.494 35.3563 139.126 35.8084 139.126H263.991C264.438 139.126 264.806 139.489 264.806 139.94V143.185C264.802 143.637 264.438 144 263.991 144Z" fill="#C1C8D3"/>
<path d="M217.293 127.11H207.537V135.546C207.537 137.51 209.131 139.107 211.103 139.107H213.732C215.699 139.107 217.298 137.515 217.298 135.546V127.11H217.293Z" fill="url(#paint5_linear)"/>
<path d="M210.632 127.11V124.508C210.632 124.08 210.977 123.735 211.406 123.735H212.39C212.818 123.735 213.163 123.391 213.163 122.962V121.98C213.163 121.552 212.818 121.207 212.39 121.207H209.224C207.048 121.207 205.286 119.448 205.286 117.273C205.286 115.099 207.048 113.34 209.224 113.34H213.424C213.853 113.34 214.198 112.995 214.198 112.567V112.218C214.198 109.965 216.025 108.14 218.281 108.14C220.538 108.14 222.365 109.965 222.365 112.218C222.365 114.648 220.388 116.622 217.955 116.622H210.567C210.138 116.622 209.793 116.966 209.793 117.395C209.793 117.823 210.138 118.167 210.567 118.167H214.604C216.095 118.167 217.303 119.373 217.303 120.863V122.548C217.303 124.038 216.095 125.243 214.604 125.243C214.175 125.243 213.83 125.588 213.83 126.016V127.12H210.632V127.11Z" fill="url(#paint6_linear)"/>
<path opacity="0.6" d="M203.608 113.312H177.994C177.01 113.312 176.213 112.516 176.213 111.533V79.2066C176.213 78.2243 177.01 77.4282 177.994 77.4282H203.608C204.591 77.4282 205.388 78.2243 205.388 79.2066V111.533C205.393 112.516 204.596 113.312 203.608 113.312Z" fill="#9ABCED"/>
<path d="M205.235 112.125H179.621C178.432 112.125 177.462 111.156 177.462 109.969V77.6423C177.462 76.4551 178.432 75.4868 179.621 75.4868H205.235C206.423 75.4868 207.393 76.4551 207.393 77.6423V109.969C207.393 111.156 206.423 112.125 205.235 112.125ZM179.621 76.2363C178.842 76.2363 178.213 76.8648 178.213 77.6423V109.969C178.213 110.747 178.842 111.375 179.621 111.375H205.235C206.013 111.375 206.642 110.747 206.642 109.969V77.6423C206.642 76.8648 206.013 76.2363 205.235 76.2363H179.621Z" fill="#4F7EB7"/>
<path opacity="0.71" d="M186.281 88.9036H180.59V82.0928H186.281V88.9036ZM181.34 88.1541H185.531V82.8423H181.34V88.1541Z" fill="#7CA6D8"/>
<path d="M184.85 86.7947L183.158 84.9093L183.718 84.4065L184.743 85.5517C185.265 84.8674 186.538 83.4941 188.957 82.4978L189.241 83.1914C186.225 84.4298 185.121 86.3199 185.111 86.3385L184.85 86.7947Z" fill="#EA9BA1"/>
<path d="M200.801 84.6486H191.973C191.665 84.6486 191.414 84.3972 191.414 84.0899C191.414 83.7826 191.665 83.5312 191.973 83.5312H200.801C201.109 83.5312 201.361 83.7826 201.361 84.0899C201.356 84.3972 201.109 84.6486 200.801 84.6486Z" fill="#9ABCED"/>
<path d="M200.801 87.3487H191.973C191.665 87.3487 191.414 87.0973 191.414 86.7901C191.414 86.4828 191.665 86.2314 191.973 86.2314H200.801C201.109 86.2314 201.361 86.4828 201.361 86.7901C201.356 87.102 201.109 87.3487 200.801 87.3487Z" fill="#9ABCED"/>
<path opacity="0.71" d="M186.281 99.3362H180.59V92.5254H186.281V99.3362ZM181.34 98.5867H185.531V93.2749H181.34V98.5867Z" fill="#7CA6D8"/>
<path d="M184.85 97.2273L183.158 95.3419L183.718 94.8391L184.743 95.9844C185.265 95.3 186.538 93.9267 188.957 92.9304L189.241 93.6241C186.225 94.8624 185.121 96.7525 185.111 96.7711L184.85 97.2273Z" fill="#EA9BA1"/>
<path d="M200.801 95.0812H191.973C191.665 95.0812 191.414 94.8298 191.414 94.5225C191.414 94.2153 191.665 93.9639 191.973 93.9639H200.801C201.109 93.9639 201.361 94.2153 201.361 94.5225C201.356 94.8298 201.109 95.0812 200.801 95.0812Z" fill="#9ABCED"/>
<path d="M200.801 97.7813H191.973C191.665 97.7813 191.414 97.53 191.414 97.2227C191.414 96.9155 191.665 96.6641 191.973 96.6641H200.801C201.109 96.6641 201.361 96.9155 201.361 97.2227C201.356 97.5346 201.109 97.7813 200.801 97.7813Z" fill="#9ABCED"/>
<path opacity="0.71" d="M186.281 109.769H180.59V102.958H186.281V109.769ZM181.34 109.02H185.531V103.708H181.34V109.02Z" fill="#7CA6D8"/>
<path d="M184.85 107.66L183.158 105.775L183.718 105.272L184.743 106.417C185.265 105.733 186.538 104.36 188.957 103.363L189.241 104.057C186.225 105.295 185.121 107.185 185.111 107.204L184.85 107.66Z" fill="#EA9BA1"/>
<path d="M200.801 105.509H191.973C191.665 105.509 191.414 105.258 191.414 104.951C191.414 104.643 191.665 104.392 191.973 104.392H200.801C201.109 104.392 201.361 104.643 201.361 104.951C201.356 105.263 201.109 105.509 200.801 105.509Z" fill="#9ABCED"/>
<path d="M200.801 108.214H191.973C191.665 108.214 191.414 107.963 191.414 107.656C191.414 107.348 191.665 107.097 191.973 107.097H200.801C201.109 107.097 201.361 107.348 201.361 107.656C201.356 107.967 201.109 108.214 200.801 108.214Z" fill="#9ABCED"/>
<path opacity="0.6" d="M293.59 63.8763H267.976C266.992 63.8763 266.195 63.0802 266.195 62.098V29.7664C266.195 28.7841 266.992 27.988 267.976 27.988H293.59C294.574 27.988 295.371 28.7841 295.371 29.7664V62.0933C295.375 63.0756 294.574 63.8763 293.59 63.8763Z" fill="#9ABCED"/>
<path d="M295.842 62.2052H270.228C269.039 62.2052 268.069 61.2369 268.069 60.0497V27.7228C268.069 26.5357 269.039 25.5674 270.228 25.5674H295.842C297.03 25.5674 298 26.5357 298 27.7228V60.0497C298 61.2369 297.03 62.2052 295.842 62.2052ZM270.228 26.3169C269.449 26.3169 268.82 26.9454 268.82 27.7228V60.0497C268.82 60.8225 269.449 61.4556 270.228 61.4556H295.842C296.62 61.4556 297.249 60.8272 297.249 60.0497V27.7228C297.249 26.95 296.62 26.3169 295.842 26.3169H270.228Z" fill="#4F7EB7"/>
<g opacity="0.5">
<path opacity="0.5" d="M278.562 38.618C279.136 36.2014 277.639 33.7778 275.22 33.2048C272.8 32.6319 270.373 34.1264 269.8 36.543C269.226 38.9596 270.722 41.3832 273.142 41.9562C275.562 42.5292 277.988 41.0346 278.562 38.618Z" fill="#7CA6D8"/>
<path opacity="0.5" d="M275.374 36.9823L278.375 31.6426C281.126 32.3316 282.44 34.92 281.126 37.5782L275.374 36.9823Z" fill="#E83F54"/>
<g opacity="0.5">
<path opacity="0.5" d="M272.558 46.9449C272.558 47.6711 271.971 48.2577 271.244 48.2577C270.517 48.2577 269.929 47.6711 269.929 46.9449C269.929 46.2187 270.517 45.6321 271.244 45.6321C271.971 45.6321 272.558 46.2187 272.558 46.9449Z" fill="#9ABCED"/>
<path opacity="0.5" d="M272.558 52.755C272.558 53.4812 271.971 54.0678 271.244 54.0678C270.517 54.0678 269.929 53.4812 269.929 52.755C269.929 52.0287 270.517 51.4421 271.244 51.4421C271.971 51.4421 272.558 52.0287 272.558 52.755Z" fill="#9ABCED"/>
<path opacity="0.5" d="M289.698 48.2577H279.191C278.464 48.2577 277.877 47.6711 277.877 46.9449C277.877 46.2187 278.464 45.6321 279.191 45.6321H289.698C290.425 45.6321 291.013 46.2187 291.013 46.9449C291.013 47.6711 290.425 48.2577 289.698 48.2577Z" fill="#9ABCED"/>
<path opacity="0.5" d="M289.698 54.0678H279.191C278.464 54.0678 277.877 53.4812 277.877 52.755C277.877 52.0287 278.464 51.4421 279.191 51.4421H289.698C290.425 51.4421 291.013 52.0287 291.013 52.755C291.013 53.4812 290.425 54.0678 289.698 54.0678Z" fill="#9ABCED"/>
<path opacity="0.5" d="M272.558 58.6578C272.558 59.384 271.971 59.9706 271.244 59.9706C270.517 59.9706 269.929 59.384 269.929 58.6578C269.929 57.9315 270.517 57.345 271.244 57.345C271.971 57.345 272.558 57.9315 272.558 58.6578Z" fill="#9ABCED"/>
<path opacity="0.5" d="M289.698 59.9706H279.191C278.464 59.9706 277.877 59.384 277.877 58.6578C277.877 57.9315 278.464 57.345 279.191 57.345H289.698C290.425 57.345 291.013 57.9315 291.013 58.6578C291.013 59.384 290.425 59.9706 289.698 59.9706Z" fill="#9ABCED"/>
</g>
</g>
<path opacity="0.6" d="M74.5163 53.3414H48.9022C47.9187 53.3414 47.1216 52.5453 47.1216 51.5631V13.2354C47.1216 12.2531 47.9187 11.457 48.9022 11.457H74.5163C75.4999 11.457 76.297 12.2531 76.297 13.2354V51.5584C76.297 52.5453 75.4999 53.3414 74.5163 53.3414Z" fill="#9ABCED"/>
<path d="M72.8895 52.0936H47.2754C46.0867 52.0936 45.1172 51.1253 45.1172 49.9382V11.6152C45.1172 10.428 46.0867 9.45972 47.2754 9.45972H72.8895C74.0781 9.45972 75.0477 10.428 75.0477 11.6152V49.9382C75.0477 51.1253 74.0781 52.0936 72.8895 52.0936ZM47.2754 10.2092C46.5016 10.2092 45.8677 10.8377 45.8677 11.6152V49.9382C45.8677 50.711 46.4969 51.3441 47.2754 51.3441H72.8895C73.6633 51.3441 74.2972 50.7156 74.2972 49.9382V11.6152C74.2972 10.8424 73.6679 10.2092 72.8895 10.2092H47.2754Z" fill="#4F7EB7"/>
<path d="M60.3318 28.6955L59.9635 29.0214C59.7305 29.2262 59.3762 29.2076 59.1711 28.9748L55.4141 24.7477L56.6214 23.677L60.3784 27.9041C60.5882 28.1368 60.5648 28.4907 60.3318 28.6955Z" fill="#7CA6D8"/>
<path d="M54.104 16.9873C51.7267 16.9873 49.7876 18.9146 49.7876 21.2982C49.7876 23.6817 51.7221 25.6091 54.104 25.6091C56.4906 25.6091 58.4204 23.6817 58.4204 21.2982C58.4204 18.9146 56.4906 16.9873 54.104 16.9873ZM54.104 24.2357C52.4819 24.2357 51.1627 22.9229 51.1627 21.2982C51.1627 19.6735 52.4819 18.3606 54.104 18.3606C55.7308 18.3606 57.0453 19.6735 57.0453 21.2982C57.0453 22.9229 55.7308 24.2357 54.104 24.2357Z" fill="#7CA6D8"/>
<path d="M71.5885 19.3616H64.7689C64.3354 19.3616 63.9858 19.0124 63.9858 18.5795C63.9858 18.1465 64.3354 17.7974 64.7689 17.7974H71.5885C72.022 17.7974 72.3716 18.1465 72.3716 18.5795C72.3716 19.0078 72.022 19.3616 71.5885 19.3616Z" fill="#9ABCED"/>
<path d="M71.5885 23.4211H64.7689C64.3354 23.4211 63.9858 23.072 63.9858 22.639C63.9858 22.2061 64.3354 21.8569 64.7689 21.8569H71.5885C72.022 21.8569 72.3716 22.2061 72.3716 22.639C72.3716 23.072 72.022 23.4211 71.5885 23.4211Z" fill="#9ABCED"/>
<path d="M71.5885 27.1687H64.7689C64.3354 27.1687 63.9858 26.8195 63.9858 26.3866C63.9858 25.9536 64.3354 25.6045 64.7689 25.6045H71.5885C72.022 25.6045 72.3716 25.9536 72.3716 26.3866C72.3716 26.8195 72.022 27.1687 71.5885 27.1687Z" fill="#9ABCED"/>
<path d="M63.1006 37.6014H52.5939C52.0998 37.6014 51.7036 37.201 51.7036 36.7122C51.7036 36.2187 52.1045 35.823 52.5939 35.823H63.1006C63.5947 35.823 63.9909 36.2234 63.9909 36.7122C63.9909 37.201 63.5901 37.6014 63.1006 37.6014Z" fill="#9ABCED"/>
<path d="M63.1006 43.1739H52.5939C52.0998 43.1739 51.7036 42.7735 51.7036 42.2847C51.7036 41.7912 52.1045 41.3955 52.5939 41.3955H63.1006C63.5947 41.3955 63.9909 41.7959 63.9909 42.2847C63.9909 42.7782 63.5901 43.1739 63.1006 43.1739Z" fill="#9ABCED"/>
<path d="M63.1006 48.751H52.5939C52.0998 48.751 51.7036 48.3506 51.7036 47.8618C51.7036 47.3684 52.1045 46.9727 52.5939 46.9727H63.1006C63.5947 46.9727 63.9909 47.373 63.9909 47.8618C63.9909 48.3506 63.5901 48.751 63.1006 48.751Z" fill="#9ABCED"/>
<path d="M71.3323 36.7122C71.3323 37.5036 70.6937 38.1414 69.9013 38.1414C69.1088 38.1414 68.4702 37.5036 68.4702 36.7122C68.4702 35.9207 69.1088 35.283 69.9013 35.283C70.6937 35.283 71.3323 35.9207 71.3323 36.7122Z" fill="#9ABCED"/>
<path d="M71.3323 42.2847C71.3323 43.0761 70.6937 43.7139 69.9013 43.7139C69.1088 43.7139 68.4702 43.0761 68.4702 42.2847C68.4702 41.4933 69.1088 40.8555 69.9013 40.8555C70.6937 40.8555 71.3323 41.4979 71.3323 42.2847Z" fill="#9ABCED"/>
<path d="M71.3323 47.8618C71.3323 48.6532 70.6937 49.291 69.9013 49.291C69.1088 49.291 68.4702 48.6532 68.4702 47.8618C68.4702 47.0704 69.1088 46.4326 69.9013 46.4326C70.6937 46.4326 71.3323 47.0704 71.3323 47.8618Z" fill="#9ABCED"/>
<path opacity="0.6" d="M199.669 53.928H152.757C151.047 53.928 149.662 52.5453 149.662 50.8368V19.725C149.662 18.0164 151.047 16.6338 152.757 16.6338H199.669C201.38 16.6338 202.764 18.0164 202.764 19.725V50.8368C202.764 52.5453 201.38 53.928 199.669 53.928Z" fill="#9ABCED"/>
<path d="M201.296 52.5872H154.384C152.469 52.5872 150.912 51.0323 150.912 49.1189V18.0071C150.912 16.0937 152.469 14.5388 154.384 14.5388H201.296C203.212 14.5388 204.769 16.0937 204.769 18.0071V49.1189C204.769 51.0323 203.207 52.5872 201.296 52.5872ZM154.384 15.293C152.883 15.293 151.662 16.5127 151.662 18.0117V49.1236C151.662 50.6226 152.883 51.8423 154.384 51.8423H201.296C202.797 51.8423 204.018 50.6226 204.018 49.1236V18.0071C204.018 16.508 202.797 15.2883 201.296 15.2883H154.384V15.293Z" fill="#4F7EB7"/>
<path opacity="0.5" d="M182.31 24.2265H156.319C155.568 24.2265 154.958 23.6167 154.958 22.8672C154.958 22.1177 155.568 21.5078 156.319 21.5078H182.31C183.061 21.5078 183.671 22.1177 183.671 22.8672C183.671 23.6167 183.061 24.2265 182.31 24.2265Z" fill="#9ABCED"/>
<path opacity="0.71" d="M182.711 44.1841H155.923C155.391 44.1841 154.962 43.7558 154.962 43.2251V29.9619C154.962 29.4312 155.391 29.0029 155.923 29.0029H182.711C183.243 29.0029 183.672 29.4312 183.672 29.9619V43.2204C183.672 43.7511 183.243 44.1841 182.711 44.1841Z" fill="#7CA6D8"/>
<path opacity="0.5" d="M196.103 24.2265H188.412C187.661 24.2265 187.051 23.6167 187.051 22.8672C187.051 22.1177 187.661 21.5078 188.412 21.5078H196.108C196.858 21.5078 197.469 22.1177 197.469 22.8672C197.464 23.6167 196.854 24.2265 196.103 24.2265Z" fill="#9ABCED"/>
<path opacity="0.5" d="M196.621 31.4377H188.538C188.072 31.4377 187.694 31.0606 187.694 30.5951C187.694 30.1295 188.072 29.7524 188.538 29.7524H196.621C197.087 29.7524 197.465 30.1295 197.465 30.5951C197.465 31.0606 197.087 31.4377 196.621 31.4377Z" fill="#9ABCED"/>
<path opacity="0.5" d="M196.621 35.2504H188.538C188.072 35.2504 187.694 34.8734 187.694 34.4078C187.694 33.9423 188.072 33.5652 188.538 33.5652H196.621C197.087 33.5652 197.465 33.9423 197.465 34.4078C197.465 34.8734 197.087 35.2504 196.621 35.2504Z" fill="#9ABCED"/>
<path opacity="0.5" d="M196.621 39.0585H188.538C188.072 39.0585 187.694 38.6815 187.694 38.2159C187.694 37.7504 188.072 37.3733 188.538 37.3733H196.621C197.087 37.3733 197.465 37.7504 197.465 38.2159C197.465 38.6815 197.087 39.0585 196.621 39.0585Z" fill="#9ABCED"/>
<path opacity="0.5" d="M196.621 42.8713H188.538C188.072 42.8713 187.694 42.4942 187.694 42.0287C187.694 41.5631 188.072 41.186 188.538 41.186H196.621C197.087 41.186 197.465 41.5631 197.465 42.0287C197.465 42.4942 197.087 42.8713 196.621 42.8713Z" fill="#9ABCED"/>
<path opacity="0.5" d="M191.129 50.1197H161.199C160.579 50.1197 160.071 49.6169 160.071 48.9931C160.071 48.3739 160.574 47.8665 161.199 47.8665H191.129C191.749 47.8665 192.257 48.3692 192.257 48.9931C192.257 49.6122 191.754 50.1197 191.129 50.1197Z" fill="#9ABCED"/>
<path opacity="0.6" d="M49.1071 92.0972H4.69846C3.3187 92.0972 2.19531 90.9799 2.19531 89.5973V62.7358C2.19531 61.3578 3.31404 60.2358 4.69846 60.2358H49.1071C50.4869 60.2358 51.6103 61.3531 51.6103 62.7358V89.5973C51.6103 90.9753 50.4915 92.0972 49.1071 92.0972Z" fill="#9ABCED"/>
<path d="M47.2894 90.6263H2.87605C1.29119 90.6263 0 89.3367 0 87.7539V60.8924C0 59.3096 1.29119 58.02 2.87605 58.02H47.2847C48.8696 58.02 50.1608 59.3096 50.1608 60.8924V87.7539C50.1654 89.3367 48.8742 90.6263 47.2894 90.6263ZM2.87605 58.7695C1.70139 58.7695 0.750477 59.7239 0.750477 60.8924V87.7539C0.750477 88.9271 1.70605 89.8767 2.87605 89.8767H47.2847C48.4594 89.8767 49.4103 88.9224 49.4103 87.7539V60.8924C49.4103 59.7192 48.4547 58.7695 47.2847 58.7695H2.87605Z" fill="#4F7EB7"/>
<g opacity="0.5">
<path opacity="0.5" d="M19.9787 74.9423C18.832 76.0968 17.2378 76.8091 15.4758 76.8091C11.9611 76.8091 9.1084 73.96 9.1084 70.4545C9.1084 66.9397 11.9611 64.0906 15.4758 64.0906C16.189 64.0906 16.8789 64.2116 17.5175 64.4258L15.4758 70.4545L19.9787 74.9423Z" fill="#7CA6D8"/>
<path opacity="0.5" d="M22.6869 69.961C22.6869 71.4507 22.081 72.8008 21.1021 73.7737L17.2798 69.961L19.0138 64.8447C21.144 65.5617 22.6869 67.5821 22.6869 69.961Z" fill="#E83F54"/>
<path opacity="0.5" d="M44.1987 77.186H29.562V64.8446C29.562 64.6398 29.7298 64.4675 29.9396 64.4675C30.1447 64.4675 30.3172 64.6351 30.3172 64.8446V76.4365H44.2033C44.4131 76.4365 44.5809 76.6041 44.5809 76.8136C44.5716 77.0184 44.4037 77.186 44.1987 77.186Z" fill="#9ABCED"/>
<path opacity="0.5" d="M34.503 70.8269H32.6245V76.4366H34.503V70.8269Z" fill="#9ABCED"/>
<path opacity="0.5" d="M38.3814 67.9824H36.5029V76.4366H38.3814V67.9824Z" fill="#E83F54"/>
<path opacity="0.5" d="M42.1993 72.2095H40.3208V76.4366H42.1993V72.2095Z" fill="#9ABCED"/>
<path opacity="0.5" d="M18.2724 82.9122H9.45315C9.08956 82.9122 8.7959 82.6189 8.7959 82.2558C8.7959 81.8927 9.08956 81.5994 9.45315 81.5994H18.2724C18.636 81.5994 18.9297 81.8927 18.9297 82.2558C18.9297 82.6189 18.636 82.9122 18.2724 82.9122Z" fill="#9ABCED"/>
<path opacity="0.5" d="M31.7207 82.9122H22.9014C22.5378 82.9122 22.2441 82.6189 22.2441 82.2558C22.2441 81.8927 22.5378 81.5994 22.9014 81.5994H31.7207C32.0842 81.5994 32.3779 81.8927 32.3779 82.2558C32.3779 82.6189 32.0842 82.9122 31.7207 82.9122Z" fill="#9ABCED"/>
<path opacity="0.5" d="M44.3525 82.9122H35.5332C35.1696 82.9122 34.876 82.6189 34.876 82.2558C34.876 81.8927 35.1696 81.5994 35.5332 81.5994H44.3525C44.7161 81.5994 45.0097 81.8927 45.0097 82.2558C45.0097 82.6189 44.7161 82.9122 44.3525 82.9122Z" fill="#9ABCED"/>
<path opacity="0.5" d="M24.0571 87.5955H15.2378C14.8742 87.5955 14.5806 87.3023 14.5806 86.9391C14.5806 86.576 14.8742 86.2827 15.2378 86.2827H24.0571C24.4207 86.2827 24.7143 86.576 24.7143 86.9391C24.7143 87.3023 24.4207 87.5955 24.0571 87.5955Z" fill="#9ABCED"/>
<path opacity="0.5" d="M36.6943 87.5955H27.875C27.5114 87.5955 27.2178 87.3023 27.2178 86.9391C27.2178 86.576 27.5114 86.2827 27.875 86.2827H36.6943C37.0579 86.2827 37.3515 86.576 37.3515 86.9391C37.3515 87.3023 37.0579 87.5955 36.6943 87.5955Z" fill="#9ABCED"/>
</g>
<defs>
<linearGradient id="paint0_linear" x1="147.714" y1="136.184" x2="147.714" y2="91.0809" gradientUnits="userSpaceOnUse">
<stop stop-color="#1F3A65"/>
<stop offset="1" stop-color="#294A7A"/>
</linearGradient>
<linearGradient id="paint1_linear" x1="120.468" y1="139.683" x2="120.468" y2="127.558" gradientUnits="userSpaceOnUse">
<stop stop-color="#1F3A65"/>
<stop offset="1" stop-color="#294A7A"/>
</linearGradient>
<linearGradient id="paint2_linear" x1="171.401" y1="139.683" x2="171.401" y2="127.558" gradientUnits="userSpaceOnUse">
<stop stop-color="#1F3A65"/>
<stop offset="1" stop-color="#294A7A"/>
</linearGradient>
<linearGradient id="paint3_linear" x1="156.695" y1="135.126" x2="140.961" y2="110.12" gradientUnits="userSpaceOnUse">
<stop stop-color="#3855E1"/>
<stop offset="1" stop-color="#5C7EF7"/>
</linearGradient>
<linearGradient id="paint4_linear" x1="144.84" y1="74.0088" x2="144.337" y2="54.384" gradientUnits="userSpaceOnUse">
<stop stop-color="#3F2323"/>
<stop offset="1" stop-color="#5E3434"/>
</linearGradient>
<linearGradient id="paint5_linear" x1="207.537" y1="133.106" x2="217.295" y2="133.106" gradientUnits="userSpaceOnUse">
<stop stop-color="#1F3A65"/>
<stop offset="1" stop-color="#294A7A"/>
</linearGradient>
<linearGradient id="paint6_linear" x1="221.472" y1="99.6334" x2="209.112" y2="124.197" gradientUnits="userSpaceOnUse">
<stop stop-color="#E2E8F7"/>
<stop offset="1" stop-color="white"/>
</linearGradient>
</defs>
</svg>
