<svg width="25" height="20" viewBox="0 0 25 20" fill="none" xmlns="http://www.w3.org/2000/svg">
<path d="M25 2.36779C24.0703 2.76923 23.0796 3.03558 22.0468 3.1649C23.1093 2.54038 23.9204 1.55865 24.3017 0.375481C23.311 0.957212 22.2172 1.36779 21.0517 1.59712C20.1107 0.610577 18.7704 0 17.3075 0C14.47 0 12.1853 2.26779 12.1853 5.0476C12.1853 5.4476 12.2195 5.83221 12.304 6.19856C8.04361 5.99375 4.27303 3.98317 1.74027 0.920192C1.29788 1.67548 1.03859 2.54038 1.03859 3.47115C1.03859 5.21875 1.95267 6.76827 3.31501 7.6649C2.49175 7.64952 1.68363 7.41394 0.999531 7.04327C0.999531 7.05865 0.999531 7.07885 0.999531 7.09856C0.999531 9.55096 2.77593 11.588 5.10606 12.0572C4.68906 12.1697 4.23397 12.2236 3.76228 12.2236C3.43415 12.2236 3.10309 12.2053 2.79205 12.1375C3.45612 14.1361 5.34044 15.6053 7.5812 15.6529C5.83752 16.9962 3.62312 17.8053 1.22659 17.8053C0.806168 17.8053 0.403328 17.787 0 17.7361C2.27006 19.1769 4.96055 20 7.86197 20C17.2933 20 22.4497 12.3077 22.4497 5.6399C22.4497 5.41683 22.4418 5.20144 22.4311 4.9875C23.4482 4.27692 24.3032 3.38942 25 2.36779Z" fill="#00AEFF"/>
</svg>
