<svg width="26" height="20" viewBox="0 0 26 20" fill="none" xmlns="http://www.w3.org/2000/svg">
<path d="M25.3333 2.36779C24.3912 2.76923 23.3873 3.03558 22.3408 3.1649C23.4175 2.54038 24.2393 1.55865 24.6258 0.375481C23.6218 0.957212 22.5135 1.36779 21.3324 1.59712C20.3789 0.610577 19.0207 0 17.5382 0C14.6629 0 12.3478 2.26779 12.3478 5.0476C12.3478 5.4476 12.3824 5.83221 12.468 6.19856C8.15086 5.99375 4.33001 3.98317 1.76347 0.920192C1.31518 1.67548 1.05244 2.54038 1.05244 3.47115C1.05244 5.21875 1.97871 6.76827 3.35921 7.6649C2.52497 7.64952 1.70608 7.41394 1.01286 7.04327C1.01286 7.05865 1.01286 7.07885 1.01286 7.09856C1.01286 9.55096 2.81295 11.588 5.17414 12.0572C4.75158 12.1697 4.29042 12.2236 3.81244 12.2236C3.47994 12.2236 3.14446 12.2053 2.82927 12.1375C3.5022 14.1361 5.41164 15.6053 7.68229 15.6529C5.91535 16.9962 3.67143 17.8053 1.24294 17.8053C0.816917 17.8053 0.408706 17.787 0 17.7361C2.30033 19.1769 5.02669 20 7.9668 20C17.5239 20 22.749 12.3077 22.749 5.6399C22.749 5.41683 22.7411 5.20144 22.7302 4.9875C23.7609 4.27692 24.6273 3.38942 25.3333 2.36779Z" fill="#00AEFF"/>
</svg>
